<?xml version="1.0" encoding="UTF-8" standalone="no"?>
<!--
************* Copyright (c) 2017 Pareto Softare, LLC DBA Simplemaps.com *******************		
************* Free for Commercial Use, full terms at  http://simplemaps.com/resources/svg-license ************
************* Attribution is appreciated! http://simplemaps.com ***************************
-->

<svg
   xmlns:dc="http://purl.org/dc/elements/1.1/"
   xmlns:cc="http://creativecommons.org/ns#"
   xmlns:rdf="http://www.w3.org/1999/02/22-rdf-syntax-ns#"
   xmlns:svg="http://www.w3.org/2000/svg"
   xmlns="http://www.w3.org/2000/svg"
   xmlns:sodipodi="http://sodipodi.sourceforge.net/DTD/sodipodi-0.dtd"
   xmlns:inkscape="http://www.inkscape.org/namespaces/inkscape"
   enable_background="new 0 0 250 180"
   height="180px"
   pretty_print="False"
   style="stroke-linejoin: round; stroke:#000; fill: none;"
   version="1.1"
   viewBox="0 0 500 1000"
   width="250px"
   id="svg"
   inkscape:version="0.48.4 r9939"
   sodipodi:docname="us.svg">
  <sodipodi:namedview
     pagecolor="#ffffff"
     bordercolor="#666666"
     borderopacity="1"
     objecttolerance="10"
     gridtolerance="10"
     guidetolerance="10"
     inkscape:pageopacity="0"
     inkscape:pageshadow="2"
     inkscape:window-width="1920"
     inkscape:window-height="1137"
     id="namedview69"
     showgrid="false"
     inkscape:zoom="0.80893016"
     inkscape:cx="817.66365"
     inkscape:cy="409.3738"
     inkscape:window-x="1192"
     inkscape:window-y="118"
     inkscape:window-maximized="1"
     inkscape:current-layer="svg2" />
  <defs
     id="defs4">
    <style
       type="text/css"
       id="style6">path { fill-rule: evenodd; }</style>
  </defs>
  <metadata
     id="metadata8">
    <views
       id="views10">
      <view
         h="180"
         padding="0"
         w="250"
         id="view12">
        <proj
           id="laea-usa"
           lat0="45"
           lon0="-100" />
        <bbox
           h="180"
           w="250"
           x="700"
           y="50"
           id="bbox15" />
      </view>
    </views>
    <rdf:RDF>
      <cc:Work
         rdf:about="">
        <dc:format>image/svg+xml</dc:format>
        <dc:type
           rdf:resource="http://purl.org/dc/dcmitype/StillImage" />
        <dc:title />
      </cc:Work>
    </rdf:RDF>
  </metadata>
  <path
     inkscape:connector-curvature="0"
     id="AK"
     data-name="Alaska"
     data-id="AK"
     d="m 101.28276,542.95341 -0.48532,0.19412 0.38826,0.0971 0.0971,-0.29119 z m 3.59134,0.58238 0,0 0,0.0971 0,-0.0971 z m -1.74714,-1.65008 0,0.29119 0.19413,-0.0971 -0.19413,-0.19413 z m -0.87357,-0.48531 0,-0.0971 0,0 0,0.0971 z m 1.8442,0.97063 0,-0.19413 -0.0971,0.0971 0.0971,0.0971 z m -0.19413,-0.19413 0,-0.0971 -0.19412,0 0.19412,0.0971 z m -75.709229,-63.77047 -0.09706,0.67945 0.194126,1.94126 -0.09706,-2.62071 z m -0.485315,-2.6207 0.09706,0.87357 0.09706,-0.29119 -0.194126,-0.58238 z m 76.194544,65.22642 0.0971,-0.58238 -0.38825,0.19412 0.29118,0.38826 z m 11.0652,4.75609 -0.0971,-0.0971 0.19412,0.38825 -0.0971,-0.29119 z m -7.18267,-3.39721 -1.06769,-0.97063 0,2.32951 1.06769,-1.35888 z m 2.42658,2.13539 -0.0971,-0.67944 -1.65007,-0.0971 1.74714,0.77651 z m 5.82378,1.35888 -0.0971,0.19413 0.19413,0 -0.0971,-0.19413 z m 0.38826,0.0971 -0.19413,0 0.38825,0.0971 -0.19412,-0.0971 z m 1.16475,0.38826 -0.0971,0 -0.0971,0 0.19412,0 z m -85.70673,-65.8088 0.388252,0.0971 0.29119,-0.0971 -0.679442,0 z m 83.57135,64.44991 -0.77651,-0.0971 0.29119,0.29119 0.48532,-0.19413 z m -88.812759,-72.02083 -1.358883,-0.58238 -0.09706,0.29119 1.455947,0.29119 z m 91.239329,72.21496 -0.19412,-0.0971 0,0.0971 0.19412,0 z m 5.92085,1.16476 -3.78546,0.29119 -0.87357,0.38825 4.65903,-0.67944 z m -104.05166,-88.61863 -1.067695,0 0.194127,0.29119 0.873568,-0.29119 z m 115.7963,93.08353 0,-0.38825 -0.19412,0 0.19412,0.38825 z m 5.04728,0.0971 0.19413,-0.19412 -0.19413,-0.19413 0,0.38825 z m 3.78547,1.0677 0.19412,-0.0971 -0.0971,0 -0.0971,0.0971 z m -3.10602,-1.74714 -0.0971,-0.38825 -0.19412,0 0.29119,0.38825 z m 6.50322,1.45595 -0.0971,0.0971 0.0971,0 0,-0.0971 z m -127.443872,-98.90732 -1.455946,0.19413 1.844199,1.65007 -0.388253,-1.8442 z m 122.299532,97.45137 0.19413,-0.58238 -0.0971,0 -0.0971,0.58238 z m 16.40367,-1.45594 0.0971,-0.19413 -0.19413,-0.0971 0.0971,0.29119 z m -2.42658,-0.87357 -3.39721,3.00895 2.42658,-0.19412 2.81483,-2.23245 -1.8442,-0.58238 z m 6.11498,1.06769 -0.67945,-0.19412 0.48532,0.38825 0.19413,-0.19413 z m 1.35888,0.0971 -1.0677,-0.29118 -0.19412,0.0971 1.26182,0.19412 z m -3.6884,-1.35888 -1.06769,0 1.8442,0.48532 -0.77651,-0.48532 z m 4.4649,0.97063 -0.0971,-0.19412 -0.38825,0.0971 0.48531,0.0971 z m -2.91189,-1.16476 -0.38825,-0.19412 0,1.06769 0.38825,-0.87357 z m 12.42408,2.42658 -0.0971,-0.0971 -0.19413,0 0.29119,0.0971 z m 0.19413,-0.0971 0,-0.0971 -0.19413,-0.0971 0.19413,0.19413 z m -1.65008,-0.58238 0.19413,0.38825 0,-0.0971 -0.19413,-0.29119 z m 0.87357,0 -0.87357,-0.29119 1.0677,0.77651 -0.19413,-0.48532 z m 1.26182,-0.97063 0,0 0,0.0971 0,-0.0971 z m 11.55051,1.45595 -0.19412,-0.38826 -0.0971,0 0.29119,0.38826 z m 104.43992,-6.50323 -0.19413,-0.19413 0.0971,0.19413 0.0971,0 z m -117.6405,3.00895 0,-0.0971 -0.0971,0.0971 0.0971,0 z m 120.45533,-4.75609 0.29119,0.38825 0.19413,0 -0.48532,-0.38825 z m -106.08999,7.27974 -0.0971,0.0971 0,0.29119 0.0971,-0.38825 z m -12.03583,-1.74714 0.19413,-0.77651 -0.0971,0 -0.0971,0.77651 z m 123.75548,-7.76505 -0.87357,0.48532 0.77651,0.38825 0.0971,-0.87357 z m -122.00834,7.27973 -0.0971,-0.19412 0.0971,0.19412 0,0 z m -7.27973,-2.13539 -2.42658,0.48532 -2.13539,2.81483 4.56197,-3.30015 z m 17.37429,3.6884 -0.58237,0.48532 0.58237,-0.0971 0,-0.38826 z m 111.91378,-9.31806 -0.19412,-0.38825 -0.0971,0.19413 0.29119,0.19412 z m -121.23184,6.79442 -0.67944,-0.0971 0.67944,0.67944 0,-0.58238 z m 114.82568,-5.5326 -0.19413,0.19413 0.19413,0.67944 0,-0.87357 z m -113.27267,5.43554 -0.29118,0.0971 0.38825,0.29119 -0.0971,-0.38825 z m 7.18268,2.03832 -0.29119,0 -0.19413,-0.19412 0.48532,0.19412 z m -7.95918,-2.03832 -0.48532,-0.29119 0.19413,0.29119 0.29119,0 z m 6.50323,1.06769 -0.87357,0.29119 -0.58238,1.55301 1.45595,-1.8442 z m 105.41055,-6.79441 0,0.67944 0.38825,-0.48532 -0.38825,-0.19412 z m -116.864,3.68839 0.77651,-0.19412 -0.0971,0 -0.67944,0.19412 z m -0.97063,-0.58238 -0.19413,-0.19412 0,0.0971 0.19413,0.0971 z m 117.83463,-3.78546 -0.19413,-0.0971 -0.0971,0.29119 0.29119,-0.19413 z m -106.47825,5.82379 -0.19412,-0.0971 -0.19413,0.29119 0.38825,-0.19413 z m 105.50762,-5.62966 0.0971,-0.48532 -0.19413,-0.0971 0.0971,0.58238 z m -0.77651,-0.48532 -0.29119,0.38826 0.48532,0.0971 -0.19413,-0.48532 z m -100.65445,4.7561 -0.19413,-0.19413 -0.0971,0 0.29119,0.19413 z m 100.36326,-6.50323 0.77651,0.29119 0.29119,-0.38826 -1.0677,0.0971 z m 1.16476,-0.67944 -0.29119,0.19412 0.48532,0.29119 -0.19413,-0.48531 z m -2.23245,0.58237 -0.19413,-0.38825 -0.19413,0.19413 0.38826,0.19412 z m 9.70631,-3.59133 -1.26182,3.59133 1.26182,-0.7765 0,-2.81483 z m -115.0198,7.47386 -0.0971,0 0,0 0.0971,0 z m 106.47824,-6.11498 -0.87356,0.87357 0.19412,0.97063 0.67944,-1.8442 z m -90.36576,7.76505 0,-0.38825 -0.0971,0.19413 0.0971,0.19412 z m 89.29807,-8.73568 2.81483,4.27078 6.3091,3.97959 -1.45594,-3.39721 -6.01792,-5.14435 -1.65007,0.29119 z m -93.18059,7.18267 -0.0971,-0.29119 -0.19412,0.0971 0.29119,0.19412 z m 96.48074,-8.83274 -0.38826,1.45595 0.67945,-0.48532 -0.29119,-0.97063 z m 2.03832,0 -0.0971,0.97063 0.87357,0.29119 -0.77651,-1.26182 z m -95.41305,7.57092 -0.48531,-0.0971 -0.48532,0.19413 0.97063,-0.0971 z m 9.99751,0.77651 -0.38826,0.67944 0.19413,-0.58238 0.19413,-0.0971 z m 1.45594,0.0971 -0.87357,0.0971 0.48532,0.58238 0.38825,-0.67944 z m -58.82025,-12.42408 0.97063,0.48532 -0.19412,-0.19413 -0.77651,-0.29119 z m 38.53406,9.60925 0.0971,-0.0971 -0.0971,0.0971 0,0 z m 0.29119,-0.0971 0.0971,0 0,-0.0971 -0.0971,0.0971 z m 100.36327,-7.47386 0.48531,1.8442 0.97063,-0.58238 -1.45594,-1.26182 z m -97.74257,6.40616 0.0971,-0.0971 0,0 -0.0971,0.0971 z m 93.56885,-5.62966 0.48532,4.4649 0.97063,-0.97063 -1.45595,-3.49427 z m 0.48532,-1.45595 2.23245,3.10602 -0.29119,-2.03832 -1.94126,-1.0677 z m -6.89148,0.77651 -0.58238,1.8442 0.7765,-1.26182 -0.19412,-0.58238 z m -77.6505,4.75609 -0.0971,-0.0971 0.0971,0.0971 0,0 z m 9.221,0.19413 -0.19413,-0.29119 0.19413,0.38825 0,-0.0971 z m 68.62362,-6.40617 3.88253,6.40617 -0.58238,-4.36784 -3.30015,-2.03833 z m -63.18809,3.39721 -0.29119,0.29119 0.48532,0.19413 -0.19413,-0.48532 z m -1.26182,0.19413 0.0971,-0.29119 -0.38825,0 0.29119,0.29119 z m -0.97063,0 -2.52364,1.65007 -3.10602,4.07665 1.55301,1.65008 7.18267,-5.33848 -3.10602,-2.03832 z m 61.24683,-6.3091 -0.67944,-0.38826 0,0.58238 0.67944,-0.19412 z m -61.82921,5.14434 0.0971,0.38825 0.67945,0.38826 -0.77651,-0.77651 z m 63.67341,-6.98854 -1.94126,0.97063 1.84419,0.58238 0.0971,-1.55301 z m -1.26182,0 -0.19413,-0.19413 -0.0971,0.19413 0.29119,0 z m 5.92085,-1.55301 -0.77651,-0.29119 -0.19412,0.58238 0.97063,-0.29119 z m -4.17372,0.67944 -0.67944,-0.0971 0,0.19413 0.67944,-0.0971 z m 2.13539,-0.77651 3.97959,5.82379 -1.06769,-5.33847 -2.9119,-0.48532 z m -64.06166,6.30911 -2.32951,1.74713 1.06769,1.16476 3.10602,-2.32952 -1.8442,-0.58237 z m -26.40117,-3.6884 -0.0971,-0.0971 0,0.0971 0.0971,0 z m -1.06769,-0.48532 -0.0971,-0.48531 0,0.19412 0.0971,0.29119 z m 29.79838,1.26182 -0.19413,0.0971 0,0.0971 0.19413,-0.19413 z m -0.97063,-0.19412 -0.0971,0 -0.19412,0.29119 0.29119,-0.29119 z m 2.32951,-0.77651 -0.29119,-0.19413 0,0.0971 0.29119,0.0971 z m 0.77651,-0.0971 -0.29119,-0.19413 0,0.0971 0.29119,0.0971 z m -1.26182,-0.29119 -0.38826,0 0,0.0971 0.38826,-0.0971 z m 19.31556,-1.94126 0.0971,-0.29119 -0.19413,0.19412 0.0971,0.0971 z m 5.92085,-3.10602 1.16475,-1.45595 -0.38825,0.29119 -0.7765,1.16476 z m -11.8417,-0.19413 0.38825,-0.29119 0.0971,-0.38825 -0.48531,0.67944 z m 0,-1.06769 -0.38826,0.29118 0.67945,-0.19412 -0.29119,-0.0971 z m -15.91836,0 -0.0971,-0.38826 -0.0971,0 0.19412,0.38826 z m 15.5301,-0.0971 -0.38825,0.38825 -0.19412,0.38826 0.58237,-0.77651 z m 10.67695,-1.16476 0.0971,0 0.0971,0 -0.19412,0 z m 0.48531,0 -0.19412,-0.0971 0,0.0971 0.19412,0 z m -1.16475,-0.0971 0.0971,0.0971 0,-0.0971 -0.0971,0 z m -7.95918,0.58238 0.38825,-0.38825 -0.48531,0.38825 0.0971,0 z m 5.92085,-1.16476 0,0 0,0 0,0 z m -4.75609,0.29119 -2.32952,3.78546 3.00896,-3.49427 -0.67944,-0.29119 z m -3.00896,0.48532 -0.29119,-0.38825 -0.0971,0.19412 0.38825,0.19413 z m 7.3768,-0.87357 -0.19413,-0.0971 0.0971,0.0971 0.0971,0 z m 2.52364,0.19413 0,-0.67945 -0.19413,0.29119 0.19413,0.38826 z m -71.24433,-7.47386 -4.65903,-0.19413 3.20308,3.39721 1.45595,-3.20308 z m 66.29411,6.89148 0.19413,0.67944 0.48531,-0.77651 -0.67944,0.0971 z m -3.88253,-0.0971 -0.29119,2.13539 0.48532,-1.35888 -0.19413,-0.77651 z m -84.25078,-16.11247 0.0971,-0.38826 0,0 -0.0971,0.38826 z m 83.28015,14.75359 0.0971,0.29119 0.19412,-0.0971 -0.29119,-0.19413 z m -0.48531,0.38825 -0.19413,-0.58238 -0.29119,0.19413 0.48532,0.38825 z m 4.56196,-1.16475 0,-0.38826 -0.29119,0.19413 0.29119,0.19413 z m -4.36784,-0.58238 0,0.97063 0.29119,-0.67944 -0.29119,-0.29119 z m -7.37679,-1.16476 0,-0.29119 0,0 0,0.29119 z m -50.66695,-12.03583 0.19412,-0.58238 -0.0971,0.0971 -0.0971,0.48531 z m 0.29119,-0.97063 -0.0971,-0.0971 -0.0971,0.0971 0.19413,0 z m 4.27077,-2.32951 0,-0.0971 0,0 0,0.0971 z m 0,-0.38826 -0.0971,-0.19412 0,0 0.0971,0.19412 z m 1.74714,-2.52364 0,0 -0.0971,0 0.0971,0 z m 0.58238,0.19413 -0.38825,-0.19413 0,0.0971 0.38825,0.0971 z m -0.58238,-0.38825 0,-0.19413 -0.19413,0.19413 0.19413,0 z m -15.5301,-4.56197 -0.19412,-0.48532 -0.0971,-0.29118 0.29119,0.7765 z m 1.45595,-1.74714 0.0971,0 0.0971,0.0971 -0.19412,-0.0971 z m -2.62071,-0.48531 -0.7765,-0.97063 0.58238,0.7765 0.19412,0.19413 z m -1.55301,-1.55301 -0.19412,0 0.29119,0.0971 -0.0971,-0.0971 z m 0.19413,-1.0677 0,0 0,0 0,0 z m -0.19413,-0.0971 0,0 0.19413,0.0971 -0.19413,-0.0971 z m 25.72173,7.66799 -1.06769,0.0971 0.58238,0.29119 0.48531,-0.38825 z m -26.78942,-9.41513 -0.77651,2.9119 2.42658,0.38825 3.20309,3.30015 1.94126,-0.87357 -6.79442,-5.72673 z m 16.98605,1.16476 0,-0.19412 0,0.0971 0,0.0971 z m -4.85316,-10.28869 -0.19413,-0.0971 0.0971,0.0971 0.0971,0 z m 2.81483,0.97063 0.29119,-0.0971 -0.0971,0 -0.19413,0.0971 z m 1.94126,-0.58238 0.29119,0 0.87357,-0.38825 -1.16476,0.38825 z m 3.49428,-1.06769 0.19412,-0.19413 -0.29119,0.19413 0.0971,0 z m 0.48531,-0.0971 0.58238,-0.29119 -0.48532,0.0971 -0.0971,0.19413 z m 1.45595,-0.58238 -0.48532,0.0971 0,0.0971 0.48532,-0.19412 z m 0.58238,-0.0971 0,0 0,0 0,0 z m 61.73214,-17.47136 -0.38825,-0.29119 -0.67944,-0.29119 1.06769,0.58238 z m -50.86107,-2.13539 0.87356,-1.16475 -0.48531,0.38825 -0.38825,0.7765 z m 1.16475,-1.35888 0.38826,-0.58238 -0.19413,0.19413 -0.19413,0.38825 z m 0.58238,-0.7765 0.67944,-0.58238 -0.38825,0.19412 -0.29119,0.38826 z m 30.57488,0.19412 0.48532,0.48532 0.29119,0 -0.77651,-0.48532 z m -15.62716,-6.40616 -3.97959,3.30014 -2.42657,-0.67944 -5.62966,3.20308 -1.0677,-0.67944 -6.40616,7.18267 -6.50323,1.45595 0.58237,3.49427 2.9119,3.97959 5.43553,5.24141 -0.87356,2.03832 4.07665,1.74714 -2.13539,0.38825 -2.62071,-2.03832 1.35889,3.00895 -1.74714,1.0677 -5.5326,-5.04728 -4.36784,0.7765 -7.47386,2.81483 3.39721,3.78546 -0.48531,2.32952 2.23245,2.71776 7.37679,2.9119 5.33848,-2.71777 0.87356,2.03833 -1.45594,6.11497 -4.46491,0 -5.2414,2.32952 -0.29119,-1.65008 -2.71777,1.0677 -1.26182,2.81483 -4.46491,3.39721 0,4.95022 1.74714,0.7765 -1.35888,4.17372 5.82378,5.04728 3.6884,-1.55301 -0.7765,6.21204 1.06769,1.35888 4.46491,0.97063 1.65007,1.8442 3.88252,0.29119 1.8442,1.94127 3.97959,-1.16476 -1.8442,2.52364 -1.45595,5.14434 -11.8417,7.66799 -1.55301,1.55301 -2.23245,-0.87357 -3.59133,0.87357 -5.14435,3.39721 8.05624,-2.32952 1.16476,1.74714 10.38575,-3.39721 0.29119,1.35889 4.07665,-4.07666 8.54156,-5.92085 0.67944,0.38826 7.47386,-5.92085 -1.94126,-2.32952 2.52364,-4.17371 6.60029,-7.86212 5.04728,-0.97063 1.55301,1.0677 -6.11497,1.74713 -1.65008,6.50323 0.19413,3.49428 2.13539,-0.19413 10.28869,-6.21204 0.7765,-2.32952 -0.87356,-3.59133 3.10601,0.7765 2.23246,-1.45594 6.40616,3.88252 -0.48531,1.0677 14.55946,1.8442 3.39721,-1.0677 0.97064,1.45595 12.6182,6.01791 2.13539,-1.26182 0.19413,-7.27973 1.65007,3.30014 8.1533,5.92085 0.67944,2.42658 7.08561,3.97959 1.8442,5.14434 1.74714,-3.97958 3.59133,6.98854 2.42658,-3.97959 -1.94126,-4.95022 -7.47386,-0.7765 -11.45345,-10.96813 -6.21204,-4.56197 -4.75609,4.65903 -2.81483,0 -6.50323,-4.27078 -6.40617,-0.29119 -9.12393,-57.55843 -1.55301,-2.71776 -3.6884,-2.23246 -5.5326,1.0677 -4.27078,-0.87357 -5.43553,-2.13539 -5.72673,0.38825 -1.45594,-2.71776 -4.56197,-0.67945 -0.7765,-1.65007 -2.03833,2.32952 -0.58238,-4.36784 z"
     style="stroke-width:0.97063118000000004;fill:#805AD5" />
</svg>
