<?xml version="1.0" encoding="UTF-8" standalone="no"?>
<!--
************* Copyright (c) 2017 Pareto Softare, LLC DBA Simplemaps.com *******************		
************* Free for Commercial Use, full terms at  http://simplemaps.com/resources/svg-license ************
************* Attribution is appreciated! http://simplemaps.com ***************************
-->

<svg
   xmlns:dc="http://purl.org/dc/elements/1.1/"
   xmlns:cc="http://creativecommons.org/ns#"
   xmlns:rdf="http://www.w3.org/1999/02/22-rdf-syntax-ns#"
   xmlns:svg="http://www.w3.org/2000/svg"
   xmlns="http://www.w3.org/2000/svg"
   xmlns:sodipodi="http://sodipodi.sourceforge.net/DTD/sodipodi-0.dtd"
   xmlns:inkscape="http://www.inkscape.org/namespaces/inkscape"
   enable_background="new 0 0 250 180"
   height="180px"
   pretty_print="False"
   style="stroke-linejoin: round; stroke:#000; fill: none;"
   version="1.1"
   viewBox="0 0 1000 589"
   width="250px"
   id="svg"
   inkscape:version="0.48.4 r9939"
   sodipodi:docname="us.svg">
  <sodipodi:namedview
     pagecolor="#ffffff"
     bordercolor="#666666"
     borderopacity="1"
     objecttolerance="10"
     gridtolerance="10"
     guidetolerance="10"
     inkscape:pageopacity="0"
     inkscape:pageshadow="2"
     inkscape:window-width="1920"
     inkscape:window-height="1137"
     id="namedview69"
     showgrid="false"
     inkscape:zoom="0.80893016"
     inkscape:cx="817.66365"
     inkscape:cy="409.3738"
     inkscape:window-x="1192"
     inkscape:window-y="118"
     inkscape:window-maximized="1"
     inkscape:current-layer="svg2" />
  <defs
     id="defs4">
    <style
       type="text/css"
       id="style6">path { fill-rule: evenodd; }</style>
  </defs>
  <metadata
     id="metadata8">
    <views
       id="views10">
      <view
         h="180"
         padding="0"
         w="250"
         id="view12">
        <proj
           id="laea-usa"
           lat0="45"
           lon0="-100" />
        <bbox
           h="180"
           w="250"
           x="700"
           y="50"
           id="bbox15" />
      </view>
    </views>
    <rdf:RDF>
      <cc:Work
         rdf:about="">
        <dc:format>image/svg+xml</dc:format>
        <dc:type
           rdf:resource="http://purl.org/dc/dcmitype/StillImage" />
        <dc:title />
      </cc:Work>
    </rdf:RDF>
  </metadata>
  <path
     inkscape:connector-curvature="0"
     id="MN"
     data-name="Minnesota"
     data-id="MN"
     d="m 558.54712,73.847349 1.94126,6.891482 4.07665,24.848159 1.94126,9.90044 0.58238,8.73568 2.23246,5.24141 0.48531,4.4649 0.38825,1.45595 -0.0971,0.29119 -3.88252,6.40616 2.52364,4.27078 4.85315,34.16622 0.19413,4.4649 4.85315,-0.29119 19.12144,-1.06769 47.75505,-3.97959 4.7561,-0.48532 0,-0.48531 -1.35889,-7.47386 -5.92085,-3.00896 -4.65903,-4.85315 -7.37679,-4.46491 -2.32952,-0.19412 -3.59133,-2.71777 0.97063,-13.39471 -3.39721,-3.10602 1.16476,-5.43554 6.21204,-5.62966 -1.0677,-11.64757 2.23245,-2.52364 0,0 7.57093,-7.95918 8.63861,-11.065195 3.30015,-2.329514 5.82379,-2.814831 6.11497,-4.561967 -4.07665,0.776505 -2.42658,-1.844199 -9.31806,1.261821 -1.45594,-1.747136 -8.34743,3.397209 -6.69736,-2.814831 -1.84419,-2.232452 -5.33848,0.388253 -3.59133,-1.844199 1.16476,-1.358884 -4.56197,-1.455947 -4.07665,0 -6.50323,2.814831 -1.26182,-1.941263 -10.28869,-1.455947 -3.49427,-8.73568 -0.38826,-2.620705 -4.4649,-1.26182 0.38825,7.47386 -11.8417,0.873568 -14.65653,0.582379 -0.97063,0.09706 z"
     style="stroke-width:0.97063118000000004;fill:#DD6B20" />
  <path
     inkscape:connector-curvature="0"
     id="ND"
     data-name="North Dakota"
     data-id="ND"
     d="m 556.50879,73.847349 -29.31306,0.582379 -20.48032,-0.09706 -17.56842,-0.388253 -20.57738,-0.776505 -1.0677,-0.09706 -0.0971,3.882525 -1.26182,23.683405 -1.55301,30.47782 -0.19413,3.88252 3.78546,0.19413 42.80484,1.16476 39.50469,-0.29119 16.40367,-0.48532 3.30014,-0.19412 -0.38825,-1.45595 -0.48531,-4.4649 -2.23246,-5.24141 -0.58238,-8.73568 -1.94126,-9.90044 -4.07665,-24.848163 -1.94126,-6.891482 -2.03833,0 z"
     style="stroke-width:0.97063118000000004;fill:#DD6B20" />
  <path
     inkscape:connector-curvature="0"
     id="AR"
     data-name="Arkansas"
     data-id="AR"
     d="m 690.4559,328.05566 -10.48282,1.55301 4.27078,-6.79442 -1.8442,-3.78546 -36.98105,3.59134 -31.25432,2.52364 -4.56197,0.29119 0.58238,2.71776 3.78546,19.60675 0.0971,4.36784 1.0677,26.40117 0.0971,4.36784 0.29119,0.0971 1.45595,1.55301 5.82378,-0.19413 0.58238,8.54155 0.19413,2.42658 3.00896,-0.29119 9.22099,-0.67944 36.5928,-3.39721 0.19412,0 -0.0971,-2.13539 0.97063,-0.67944 -1.74713,-3.30014 3.6884,-15.5301 -1.45595,-1.74714 5.5326,-6.11498 -0.38826,-5.2414 4.07665,-6.79442 0,-0.0971 -0.19412,-0.19412 3.49427,-3.20309 -0.97063,-3.88252 2.71777,-4.27078 -0.58238,-3.97959 2.91189,-5.62966 0,-0.0971 -0.0971,0 z"
     style="stroke-width:0.97063118000000004;fill:#DD6B20" />
  <path
     inkscape:connector-curvature="0"
     id="IA"
     data-name="Iowa"
     data-id="IA"
     d="m 661.53109,197.69989 -5.33847,-2.81483 -2.9119,-3.97959 -0.97063,-5.72672 0.77651,-2.62071 -2.81483,-3.39721 0,0 -4.7561,0.48532 -47.75505,3.97959 -19.12144,1.06769 -4.85315,0.29119 -2.03833,0.0971 1.65008,10.77401 -1.35889,5.14435 2.13539,3.20308 0,0.67944 0.67944,0.0971 3.10602,9.12394 3.00896,4.75609 0.19413,5.43554 3.30014,4.56196 -0.58238,1.94126 3.00896,12.22996 0,0.29119 0,0 19.89794,-0.58238 21.25682,-1.8442 20.86857,-2.62071 4.7561,4.17372 0.19412,0.19412 0.87357,-0.38825 -0.67944,-3.78546 3.59133,-2.23245 1.45595,-9.90044 -1.45595,-0.67944 0.87357,-5.04728 4.36784,-0.87357 4.85316,-3.49427 2.13539,-6.11498 0.0971,-3.10602 -3.88252,-3.6884 -1.16476,-2.32951 -3.6884,-2.32952 0.19413,-0.48531 0.0971,-0.48532 z"
     style="stroke-width:0.97063118000000004;fill:#DD6B20" />
  <path
     inkscape:connector-curvature="0"
     id="KS"
     data-name="Kansas"
     data-id="KS"
     d="m 608.92288,312.71969 -2.42658,-41.0577 -4.36784,-2.52364 -0.38825,-1.94127 -3.49428,-3.10602 3.39721,-4.17371 -1.35888,-2.42658 -2.52364,0.0971 -2.32952,-1.65008 -0.97063,-0.7765 -3.30014,0.19412 -35.81629,1.35889 -16.40367,0.38825 -32.61321,0 -13.10352,-0.19413 -3.6884,-0.0971 0,1.8442 -0.0971,5.72672 -1.0677,51.34639 0,1.94127 4.17372,0.0971 22.51864,0.29119 52.70528,-0.77651 37.56342,-1.74713 3.6884,-0.29119 -0.0971,-2.52364 z"
     style="stroke-width:0.97063118000000004;fill:#DD6B20" />
  <path
     inkscape:connector-curvature="0"
     id="MO"
     data-name="Missouri"
     data-id="MO"
     d="m 653.66898,242.44599 -4.7561,-4.17372 -20.86857,2.62071 -21.25682,1.8442 -19.89794,0.58238 0,0 -0.0971,0.58238 2.42657,4.65903 2.23246,1.553 2.6207,4.65903 0.38825,0.38826 0.97063,0.7765 2.32952,1.65008 2.52364,-0.0971 1.35888,2.42658 -3.39721,4.17371 3.49428,3.10602 0.38825,1.94127 4.36784,2.52364 2.42658,41.0577 0.0971,2.52364 0.19413,2.52364 0.0971,2.52364 0.19413,2.6207 0.0971,2.52365 4.56197,-0.29119 31.25432,-2.52364 36.98105,-3.59134 1.8442,3.78546 -4.27078,6.79442 10.48282,-1.55301 0.0971,0 0,-0.7765 0.19413,-4.46491 1.94126,-2.42658 -0.58238,-2.71776 -0.0971,-0.0971 -0.0971,-0.0971 0.38825,-1.26182 0.58238,0.19413 0.29119,0.7765 -0.0971,0.29119 0,0.0971 0,0.77651 0.38826,0.0971 0.7765,-0.97063 0,-0.0971 0.0971,-0.29119 2.52364,-1.55301 0.38826,-0.19413 0.87357,-7.95917 -0.19413,-0.38826 -0.29119,-0.0971 -6.89148,-5.62966 1.06769,-2.03833 -1.94126,-5.53259 -3.49427,-2.71777 -6.60029,-2.9119 -4.17372,-3.3972 0.48532,-6.98855 1.26182,-6.50323 -6.98855,0.38825 -2.13539,-2.23245 -0.97063,-4.4649 -11.06519,-9.31806 -3.10602,-8.63862 0.7765,-4.27078 0,0 -0.19412,-0.19412 z"
     style="stroke-width:0.97063118000000004;fill:#DD6B20" />
  <path
     inkscape:connector-curvature="0"
     id="NE"
     data-name="Nebraska"
     data-id="NE"
     d="m 572.33008,204.68843 -3.00895,-3.00895 -10.57988,-3.10602 -3.39721,-0.0971 -5.14435,1.45594 -6.11498,-3.88252 -19.12143,0.19412 -27.85712,-0.29119 -32.90439,-1.06769 -2.9119,-0.0971 -0.0971,2.52364 -0.38825,7.57092 -0.87357,17.76255 -0.48532,10.19163 -0.0971,2.52364 2.32952,0.0971 23.6834,0.87357 4.65903,0.19413 -0.38826,19.02437 -0.0971,1.26182 3.6884,0.0971 13.10352,0.19413 32.61321,0 16.40367,-0.38825 35.81629,-1.35889 3.30014,-0.19412 -0.38825,-0.38826 -2.6207,-4.65903 -2.23246,-1.553 -2.42657,-4.65903 0.0971,-0.58238 0,-0.29119 -3.00896,-12.22996 0.58238,-1.94126 -3.30014,-4.56196 -0.19413,-5.43554 -3.00896,-4.75609 -3.10602,-9.12394 -0.67944,-0.0971 -1.8442,-0.19413 z"
     style="stroke-width:0.97063118000000004;fill:#DD6B20" />
  <path
     inkscape:connector-curvature="0"
     id="OK"
     data-name="Oklahoma"
     data-id="OK"
     d="m 609.50526,322.91131 -0.19413,-2.6207 -0.0971,-2.52364 -0.19413,-2.52364 -3.6884,0.29119 -37.56342,1.74713 -52.70528,0.77651 -22.51864,-0.29119 -4.17372,-0.0971 -1.55301,0 -6.11497,-0.19413 -1.94127,-0.0971 -4.07665,-0.0971 -1.94126,-0.0971 -0.0971,2.52364 -0.0971,2.52364 -0.0971,2.52364 -0.0971,2.62071 0.58238,0 23.48927,0.58238 24.84816,0.29119 0.29119,33.19558 1.74714,5.82379 3.88252,3.6884 4.17372,0.19413 0.87356,-1.74714 5.72673,5.24141 7.47386,0.7765 1.35888,1.55301 2.71777,-1.26182 6.79442,3.20309 0,1.84419 2.52364,-0.0971 2.6207,-2.23245 4.85316,3.10602 4.56197,1.65007 3.10601,-4.27077 9.90044,4.65902 3.6884,-3.00895 3.00896,-1.16476 2.42658,0.58238 9.12393,-2.6207 4.85316,2.03832 4.36784,2.81483 3.78546,0.67944 0.0971,0 -0.0971,-4.36784 -1.0677,-26.40117 -0.0971,-4.36784 -3.78546,-19.60675 -0.58238,-2.71776 -0.0971,-2.52365 z"
     style="stroke-width:0.97063118000000004;fill:#DD6B20" />
  <path
     inkscape:connector-curvature="0"
     id="SD"
     data-name="South Dakota"
     data-id="SD"
     d="m 566.89455,135.57949 -16.40367,0.48532 -39.50469,0.29119 -42.80484,-1.16476 -3.78546,-0.19413 -0.0971,2.23246 -0.38825,8.83274 -0.29119,6.69736 -0.0971,1.35888 -0.29119,0 -0.0971,2.52364 -0.97063,20.38326 -0.7765,15.14184 -0.0971,2.62071 2.9119,0.0971 32.90439,1.06769 27.85712,0.29119 19.12143,-0.19412 6.11498,3.88252 5.14435,-1.45594 3.39721,0.0971 10.57988,3.10602 3.00895,3.00895 1.8442,0.19413 0,-0.67944 -2.13539,-3.20308 1.35889,-5.14435 -1.65008,-10.77401 2.03833,-0.0971 -0.19413,-4.4649 -4.85315,-34.16622 -2.52364,-4.27078 3.88252,-6.40616 0.0971,-0.29119 -3.30014,0.19412 z"
     style="stroke-width:0.97063118000000004;fill:#DD6B20" />
  <path
     inkscape:connector-curvature="0"
     id="LA"
     data-name="Louisiana"
     data-id="LA"
     d="m 688.99995,469.2825 -1.26182,0.29119 -0.58238,0.58238 1.8442,-0.87357 z m 4.07665,0 -0.67944,-0.29119 -0.19412,0.29119 0.87356,0 z m 2.32952,-0.77651 -0.67944,0 -0.38826,0.48532 1.0677,-0.48532 z m -1.16476,-0.67944 -0.19413,-0.29119 -0.0971,0.29119 0.29119,0 z m 7.76505,-5.14434 -0.29119,0.19412 0.48532,0 -0.19413,-0.19412 z m 13.58884,-5.72673 0.58238,-0.7765 -0.67945,0.87357 0.0971,-0.0971 z m 1.94126,-2.52364 -0.19413,0.0971 0,0.0971 0.19413,-0.19413 z m -49.89044,8.54156 1.45594,-1.8442 -3.97959,-1.0677 -1.74713,1.45595 4.27078,1.45595 z m 40.28119,-8.44449 -0.38825,-0.38826 -0.0971,0.19413 0.48532,0.19413 z m 1.06769,-1.74714 -0.97063,-0.29119 0.29119,0.97063 0.67944,-0.67944 z m 7.95918,-1.65007 0,-0.29119 0,0.0971 0,0.19413 z m 1.94126,-1.26182 -0.0971,-0.0971 0.0971,0.19413 0,-0.0971 z m -0.7765,-0.19413 -0.19413,-0.0971 -0.0971,0.29119 0.29119,-0.19413 z m -6.79442,-0.29119 0.87357,-0.29119 0,-0.29119 -0.87357,0.58238 z m 0.48532,-0.48532 0.48531,-0.48531 -0.0971,-0.0971 -0.38825,0.58237 z m -3.39721,-3.59133 -0.19413,0.19413 0.0971,0 0.0971,-0.19413 z m -35.8163,-54.35535 -0.19412,0 -36.5928,3.39721 -9.22099,0.67944 -3.00896,0.29119 0.0971,2.32952 1.94126,18.73318 3.20309,4.4649 0.0971,2.62071 3.10602,5.43553 2.52364,7.95918 -0.87357,4.4649 -0.67944,11.0652 -1.45594,3.59133 0.19412,0 0.29119,2.52364 -1.65007,2.32952 12.03582,-1.35889 9.41513,2.62071 6.69735,0.87357 3.39721,-2.42658 -1.8442,-2.42658 6.21204,-1.94126 -0.19412,2.13539 3.20308,-0.77651 2.6207,4.07665 2.23245,-0.7765 5.82379,3.97959 -3.59133,1.26182 8.25036,2.42657 3.10602,0 1.8442,-2.23245 3.97959,-2.13539 2.81483,4.07666 1.94126,-3.6884 -0.58238,-5.82379 5.24141,2.03833 0.58238,1.74713 6.21204,0.77651 3.10602,2.52364 -0.38825,2.03832 4.36784,-4.07665 -1.65008,-2.13539 -7.27973,-1.8442 -2.71777,-1.55301 -0.0971,-2.91189 3.00896,0.38825 2.32951,-4.75609 -3.00896,-4.17371 -1.65007,3.97958 -3.78546,-0.67944 2.6207,-4.27078 -1.74713,-0.48531 -4.27078,3.00896 -6.11498,0.38825 -1.74713,-1.35889 2.81483,-4.95021 3.30014,-0.0971 5.62967,1.8442 4.07665,0.38825 0,0 -2.23245,-2.81483 -4.27078,-8.34742 1.16476,-4.65903 -33.48678,3.68839 1.26182,-1.26182 -1.35888,-3.49427 2.03832,-3.00896 1.16476,-7.57092 7.3768,-12.6182 -3.59134,-4.36784 0.19413,-3.20309 -2.23246,-5.24141 0,-0.67944 z"
     style="stroke-width:0.97063118000000004;fill:#DD6B20" />
  <path
     inkscape:connector-curvature="0"
     id="TX"
     data-name="Texas"
     data-id="TX"
     d="m 573.98015,536.93549 -4.65902,-17.56842 0,3.30015 4.65902,14.26827 z m -1.06769,-30.86607 -3.30015,6.21204 -0.38825,2.03833 3.6884,-8.25037 z m 2.6207,-4.56196 3.10602,-4.07666 -2.23245,1.35889 -0.87357,2.71777 z m 10.96814,-9.90044 -7.27974,3.78546 2.03833,-0.38825 5.24141,-3.39721 z m 0.97063,-1.35889 2.03832,-1.65007 -0.7765,0.19413 -1.26182,1.45594 z m -115.11686,-162.87191 -0.67944,-0.0971 -3.30015,91.0452 -19.2185,-0.87357 -30.76901,-1.74713 -12.32701,-0.87357 2.42658,4.75609 0.0971,0.0971 10.48282,10.48281 6.01791,7.08561 7.95917,5.92085 5.62967,10.28869 2.13538,10.77401 4.56197,3.00895 3.59134,3.97959 5.14434,1.8442 7.47386,4.75609 3.39721,1.26183 4.65903,-4.65903 1.45595,-4.95022 2.42658,-4.7561 7.57092,-3.00895 2.91189,1.45594 8.44449,0.67945 7.66799,4.75609 5.24141,0.97063 -1.45595,2.71777 3.00896,1.94126 2.81483,3.39721 0.58238,3.59133 1.8442,2.42658 4.27077,10.28869 4.27078,3.59134 3.30015,5.43553 4.17371,4.27078 1.8442,0.58238 1.55301,11.06519 4.56197,2.52365 0.19412,3.49427 1.16476,-0.29119 7.95918,9.70631 3.97959,0.87357 5.04728,3.00896 7.76505,0 5.62966,3.10601 6.69735,-1.45594 -3.00895,-2.81483 -2.71777,-8.1533 -1.06769,-7.08561 -1.55301,-2.32952 0.67944,-4.75609 -2.03833,-0.19413 -2.71777,-4.4649 3.10602,3.30015 3.59134,-1.26182 1.94126,-5.14435 -3.88252,-5.24141 5.82378,0.67944 2.71777,-4.17371 -0.38825,-1.45595 2.42658,-3.20308 -0.58238,2.81483 2.71777,-2.13539 -1.0677,-3.78546 3.49427,1.8442 4.46491,-2.52364 -4.36784,-4.56197 2.71776,1.0677 5.04729,0.29119 6.60029,-1.45595 7.3768,-4.95022 4.4649,-3.6884 0.67944,-2.71777 2.71777,-2.81483 -1.45595,-4.65903 0.29119,-2.91189 4.85316,-2.13539 -0.38826,5.14435 2.9119,0 -3.20308,2.71776 12.90939,-6.79441 2.13539,-0.0971 1.35888,-6.21204 0.38826,0 1.45594,-3.59133 0.67944,-11.0652 0.87357,-4.4649 -2.52364,-7.95918 -3.10602,-5.43553 -0.0971,-2.62071 -3.20309,-4.4649 -1.94126,-18.73318 -0.0971,-2.32952 -0.19413,-2.42658 -0.58238,-8.54155 -5.82378,0.19413 -1.45595,-1.55301 -0.29119,-0.0971 -0.0971,0 -3.78546,-0.67944 -4.36784,-2.81483 -4.85316,-2.03832 -9.12393,2.6207 -2.42658,-0.58238 -3.00896,1.16476 -3.6884,3.00895 -9.90044,-4.65902 -3.10601,4.27077 -4.56197,-1.65007 -4.85316,-3.10602 -2.6207,2.23245 -2.52364,0.0971 0,-1.84419 -6.79442,-3.20309 -2.71777,1.26182 -1.35888,-1.55301 -7.47386,-0.7765 -5.72673,-5.24141 -0.87356,1.74714 -4.17372,-0.19413 -3.88252,-3.6884 -1.74714,-5.82379 -0.29119,-33.19558 -24.84816,-0.29119 -23.48927,-0.58238 -0.58238,0 z"
     style="stroke-width:0.97063118000000004;fill:#DD6B20" />
  <path
     inkscape:connector-curvature="0"
     id="AL"
     data-name="Alabama"
     data-id="AL"
     d="m 718.31301,344.84758 0.38826,0.77651 1.35888,0.87356 0.58238,39.79588 0.19413,21.8392 4.95021,29.89545 0.38826,-0.0971 4.36784,0.87357 1.16475,-8.63862 1.94127,4.85316 3.30014,3.00896 6.30911,-3.6884 -0.67945,-0.58238 0.19413,0.0971 -4.36784,-9.9975 41.93127,-6.79442 2.81483,-0.48531 0,-0.0971 -2.62071,-4.95022 -0.19412,-7.0856 -2.13539,-3.88253 1.06769,-7.57092 1.74714,-1.94126 -7.18267,-12.81234 -13.00646,-39.60175 -0.0971,-0.19413 -2.9119,0.48532 -15.5301,2.52364 -7.76504,0.97063 -16.30661,2.23245 0.0971,0.19413 z"
     style="stroke-width:0.97063118000000004;fill:#DD6B20" />
  <path
     inkscape:connector-curvature="0"
     id="MS"
     data-name="Mississippi"
     data-id="MS"
     d="m 716.76,442.78427 -0.48531,0.0971 0,0.0971 0.48531,-0.19412 z m 9.02687,-1.16476 -1.35888,0 1.26182,0.0971 0.0971,-0.0971 z m -11.25932,0.97063 -0.38825,0.38825 0.0971,0.0971 0.29119,-0.48532 z m 9.12394,-0.7765 -3.6884,0 3.49427,0.0971 0.19413,-0.0971 z m -40.47533,-92.50116 0,0.0971 -4.07665,6.79442 0.38826,5.2414 -5.5326,6.11498 1.45595,1.74714 -3.6884,15.5301 1.74713,3.30014 -0.97063,0.67944 0.0971,2.13539 0,0.67944 2.23246,5.24141 -0.19413,3.20309 3.59134,4.36784 -7.3768,12.6182 -1.16476,7.57092 -2.03832,3.00896 1.35888,3.49427 -1.26182,1.26182 33.48678,-3.68839 -1.16476,4.65903 4.27078,8.34742 2.23245,2.81483 0,-0.0971 3.59133,-4.07665 7.57093,-1.65007 6.98854,0.7765 1.06769,-1.35888 0,-0.0971 -4.95021,-29.89545 -0.19413,-21.8392 -0.58238,-39.79588 -1.35888,-0.87356 -0.38826,-0.77651 -0.19412,0 -4.85316,0.67944 -8.54155,1.16476 -19.41263,2.42658 -2.13539,0.19412 z"
     style="stroke-width:0.97063118000000004;fill:#DD6B20" />
  <path
     inkscape:connector-curvature="0"
     id="IL"
     data-name="Illinois"
     data-id="IL"
     d="m 661.43403,198.18521 -0.19413,0.48531 3.6884,2.32952 1.16476,2.32951 3.88252,3.6884 -0.0971,3.10602 -2.13539,6.11498 -4.85316,3.49427 -4.36784,0.87357 -0.87357,5.04728 1.45595,0.67944 -1.45595,9.90044 -3.59133,2.23245 0.67944,3.78546 -0.87357,0.38825 0,0 -0.7765,4.27078 3.10602,8.63862 11.06519,9.31806 0.97063,4.4649 2.13539,2.23245 6.98855,-0.38825 -1.26182,6.50323 -0.48532,6.98855 4.17372,3.3972 6.60029,2.9119 3.49427,2.71777 1.94126,5.53259 -1.06769,2.03833 6.89148,5.62966 0.29119,0.0971 -0.58238,-0.58238 1.94126,-4.56196 7.47386,2.03832 1.8442,-2.13539 -1.45594,-4.27077 6.11497,-3.59134 -1.65007,-2.32951 1.45595,-3.30015 0,-0.29119 -0.38826,-0.0971 0.0971,-8.63862 2.13539,-1.55301 3.68839,-8.63862 -0.7765,-3.78546 -2.42658,-4.56196 1.35888,-5.14435 -6.79441,-47.85212 -0.97064,-1.06769 -2.52364,-5.72673 -2.03832,-2.13539 -0.87357,-5.62966 0,-0.19412 -13.10352,1.8442 -7.86211,0.97063 -21.15976,2.42658 0,0 z"
     style="stroke-width:0.97063118000000004;fill:#DD6B20" />
  <path
     inkscape:connector-curvature="0"
     id="TN"
     data-name="Tennessee"
     data-id="TN"
     d="m 786.2572,300.48973 -27.76005,4.65903 -39.50469,5.24141 -3.30015,0.0971 0.97063,3.88252 -19.60675,2.6207 -2.81483,0.38826 0,0.0971 -0.7765,0.97063 -0.38826,-0.0971 0,-0.77651 0,-0.0971 -1.06769,0.0971 0.0971,0.0971 0.58238,2.71776 -1.94126,2.42658 -0.19413,4.46491 0,0.7765 0,0.0971 -2.91189,5.62966 0.58238,3.97959 -2.71777,4.27078 0.97063,3.88252 -3.49427,3.20309 0.19412,0.19412 2.13539,-0.19412 19.41263,-2.42658 8.54155,-1.16476 4.85316,-0.67944 0.19412,0 -0.0971,-0.19413 16.30661,-2.23245 7.76504,-0.97063 15.5301,-2.52364 2.9119,-0.48532 1.74713,-0.19412 8.25037,-1.55301 2.03832,-0.38825 7.57093,-1.45595 1.35888,-0.19413 0,-0.97063 -0.0971,-4.27078 3.59133,-1.94126 0.19413,-2.52364 4.07665,-3.78546 3.88253,-0.97063 7.95917,-7.18267 3.00896,-4.46491 2.32951,0.87357 5.24141,-5.14434 2.81483,-0.29119 2.52364,-5.14435 1.0677,0.0971 -0.0971,-4.17371 0.48532,-1.45595 -1.55301,0.29119 -5.5326,1.55301 -6.60029,1.35889 -16.59779,3.39721 -1.74714,0.29118 -0.38825,0.29119 z"
     style="stroke-width:0.97063118000000004;fill:#DD6B20" />
  <path
     inkscape:connector-curvature="0"
     id="WI"
     data-name="Wisconsin"
     data-id="WI"
     d="m 705.79187,134.80299 -2.42658,3.00896 -1.45594,4.36784 0.67944,2.42657 3.20308,-9.80337 z m -55.71423,-22.80983 1.45595,-2.03833 -1.0677,0.97063 -0.38825,1.0677 z m 2.23245,-3.20309 -0.48531,-0.58238 -1.0677,0.67945 1.55301,-0.0971 z m -21.15976,5.43554 -2.23245,2.52364 1.0677,11.64757 -6.21204,5.62966 -1.16476,5.43554 3.39721,3.10602 -0.97063,13.39471 3.59133,2.71777 2.32952,0.19412 7.37679,4.46491 4.65903,4.85315 5.92085,3.00896 1.35889,7.47386 0,0.48531 0,0 2.81483,3.39721 -0.77651,2.62071 0.97063,5.72672 2.9119,3.97959 5.33847,2.81483 -0.0971,0.48532 0,0 21.15976,-2.42658 7.86211,-0.97063 13.10352,-1.8442 -0.38825,-1.45595 0,-4.56197 -2.62071,-4.85315 -0.67944,-6.11498 1.26182,-6.79442 -0.67944,-5.24141 2.32952,-6.50322 -0.87357,-1.0677 0.19412,-6.01791 1.26182,-4.56197 -1.45594,-1.55301 -2.81483,0.97063 -1.55301,4.07665 -3.6884,2.13539 1.16476,-5.14434 3.30014,-4.36784 0.19413,-1.94127 0.0971,-0.0971 -4.65903,-4.65903 0,-6.60029 -5.24141,-4.27078 -7.18267,-0.48531 -7.3768,-1.94127 -15.91835,-4.85315 -3.10602,-1.74714 -0.29119,0.29119 -4.95022,-0.67944 -1.65007,0.97063 0.67944,-7.08561 -7.95917,4.07665 -9.70631,1.55301 -0.0971,-0.19412 z m 19.02437,-5.14435 -0.19412,-0.67944 -0.67944,0.29119 0.87356,0.38825 z m -3.49427,-0.67944 0.29119,-0.58238 -0.19413,-0.19413 -0.0971,0.77651 z m 7.08561,-1.65007 -0.29119,-1.35889 -0.29119,1.65008 0.58238,-0.29119 z"
     style="stroke-width:0.97063118000000004;fill:#DD6B20" />
</svg>
