<?xml version="1.0" encoding="UTF-8" standalone="no"?>
<!--
************* Copyright (c) 2017 Pareto Softare, LLC DBA Simplemaps.com *******************		
************* Free for Commercial Use, full terms at  http://simplemaps.com/resources/svg-license ************
************* Attribution is appreciated! http://simplemaps.com ***************************
-->

<svg
   xmlns:dc="http://purl.org/dc/elements/1.1/"
   xmlns:cc="http://creativecommons.org/ns#"
   xmlns:rdf="http://www.w3.org/1999/02/22-rdf-syntax-ns#"
   xmlns:svg="http://www.w3.org/2000/svg"
   xmlns="http://www.w3.org/2000/svg"
   xmlns:sodipodi="http://sodipodi.sourceforge.net/DTD/sodipodi-0.dtd"
   xmlns:inkscape="http://www.inkscape.org/namespaces/inkscape"
   enable_background="new 0 0 250 180"
   height="180px"
   pretty_print="False"
   style="stroke-linejoin: round; stroke:#000; fill: none;"
   version="1.1"
   viewBox="0 0 1000 589"
   width="250px"
   id="svg"
   inkscape:version="0.48.4 r9939"
   sodipodi:docname="us.svg">
  <sodipodi:namedview
     pagecolor="#ffffff"
     bordercolor="#666666"
     borderopacity="1"
     objecttolerance="10"
     gridtolerance="10"
     guidetolerance="10"
     inkscape:pageopacity="0"
     inkscape:pageshadow="2"
     inkscape:window-width="1920"
     inkscape:window-height="1137"
     id="namedview69"
     showgrid="false"
     inkscape:zoom="0.80893016"
     inkscape:cx="817.66365"
     inkscape:cy="409.3738"
     inkscape:window-x="1192"
     inkscape:window-y="118"
     inkscape:window-maximized="1"
     inkscape:current-layer="svg2" />
  <defs
     id="defs4">
    <style
       type="text/css"
       id="style6">path { fill-rule: evenodd; }</style>
  </defs>
  <metadata
     id="metadata8">
    <views
       id="views10">
      <view
         h="180"
         padding="0"
         w="250"
         id="view12">
        <proj
           id="laea-usa"
           lat0="45"
           lon0="-100" />
        <bbox
           h="180"
           w="250"
           x="700"
           y="50"
           id="bbox15" />
      </view>
    </views>
    <rdf:RDF>
      <cc:Work
         rdf:about="">
        <dc:format>image/svg+xml</dc:format>
        <dc:type
           rdf:resource="http://purl.org/dc/dcmitype/StillImage" />
        <dc:title />
      </cc:Work>
    </rdf:RDF>
  </metadata>
  <path
     inkscape:connector-curvature="0"
     id="MA"
     data-name="Massachusetts"
     data-id="MA"
     d="m 956.31178,153.05085 -0.29118,-0.19412 0,0.29119 0.29118,-0.0971 z m -2.91189,-2.6207 0.67944,-0.29119 0,-0.38825 -0.67944,0.67944 z m 12.03583,-7.57092 -0.0971,-1.35889 -0.19412,-0.7765 0.29119,2.13539 z m -42.41659,-9.9975 -0.67944,0.29119 -5.5326,1.65007 -1.94126,0.67944 -2.23245,0.67944 -0.7765,0.29119 0,0.29119 0.29118,5.04728 0.29119,4.65903 0.29119,4.27078 0.48532,0.29119 1.74714,-0.48532 7.86211,-2.32951 0.19412,0.48531 13.97709,-5.33847 0.0971,0.19413 1.26182,-0.48532 4.4649,-1.74713 4.27078,5.14434 0,0 0.58238,-0.48531 0.29119,-1.45595 -0.0971,2.32952 0,0 0.97063,0 0.29119,1.16475 0.87357,1.65008 0,0 4.56197,-5.5326 3.78546,1.26182 0.87357,-1.94126 6.21204,-3.30015 -2.62071,-5.14435 0.67945,3.30015 -3.20309,2.42658 -3.59133,0.29119 -7.18267,-7.66799 -3.20309,-4.85315 3.20309,-3.39721 -3.30015,-0.19413 -1.35888,-3.20308 -0.0971,-0.19413 -5.53259,6.01791 -12.22996,4.07666 -3.97959,1.26182 0,0 z"
     style="stroke-width:0.97063118000000004;fill:#E53E3E" />
  <path
     inkscape:connector-curvature="0"
     id="CT"
     data-name="Connecticut"
     data-id="CT"
     d="m 936.99622,143.34454 -13.97709,5.33847 -0.19412,-0.48531 -7.86211,2.32951 -1.74714,0.48532 0.19413,0.97063 3.68839,14.26828 1.16476,1.45595 -2.52364,3.10602 1.74714,1.65007 0,0 5.62966,-5.43554 3.00895,-4.17371 0.58238,1.16476 14.17122,-6.30911 0.29119,-0.29118 -0.0971,-2.32952 -0.58237,-2.03833 -3.00896,-8.44449 -0.38825,-1.06769 -0.0971,-0.19413 z"
     style="stroke-width:0.97063118000000004;fill:#E53E3E" />
  <path
     inkscape:connector-curvature="0"
     id="NH"
     data-name="New Hampshire"
     data-id="NH"
     d="m 923.8927,75.982738 -1.26182,1.55301 -1.45594,-0.29119 -0.77651,6.406166 0,0.09706 2.32952,8.735681 -0.19413,1.747136 -4.17372,5.532598 1.0677,5.047281 0,6.30911 -0.77651,5.82378 4.36784,15.91836 0,0 0,0 3.97959,-1.26182 12.22996,-4.07666 5.53259,-6.01791 0,0 0,-1.55301 0.29119,-2.52364 -0.67944,0.29119 -0.0971,-0.58238 -6.11498,-7.47386 -0.19413,-0.67944 -14.07415,-33.001465 0,0 z"
     style="stroke-width:0.97063118000000004;fill:#E53E3E" />
  <path
     inkscape:connector-curvature="0"
     id="RI"
     data-name="Rhode Island"
     data-id="RI"
     d="m 946.50841,152.08022 -0.0971,-2.03832 -0.29119,0.7765 0.38825,1.26182 z m 1.94126,-1.55301 -1.26182,-2.42657 -0.0971,2.52364 1.35888,-0.0971 z m -0.58238,-3.00895 0.67944,1.74713 0.87357,1.55301 0.58238,-1.16475 -0.87357,-1.65008 -0.29119,-1.16475 -0.97063,0 0,0.67944 z m -10.774,-3.97959 0.38825,1.06769 3.00896,8.44449 0.58237,2.03833 0.0971,2.32952 0.19412,-0.29119 4.65903,-3.6884 -0.87356,-6.60029 1.94126,-0.38826 0,0 -4.27078,-5.14434 -4.4649,1.74713 -1.26182,0.48532 z"
     style="stroke-width:0.97063118000000004;fill:#E53E3E" />
  <path
     inkscape:connector-curvature="0"
     id="VT"
     data-name="Vermont"
     data-id="VT"
     d="m 923.01913,132.86173 -4.36784,-15.91836 0.77651,-5.82378 0,-6.30911 -1.0677,-5.047278 4.17372,-5.532598 0.19413,-1.747136 -2.32952,-8.735681 -1.26182,0.485316 -5.33847,1.941262 -5.24141,2.038326 -12.03583,4.36784 -0.67944,0.194126 4.36784,10.191633 1.45595,9.60924 5.14434,8.05624 4.85316,15.91835 0.19413,-0.0971 0.7765,-0.29119 2.23245,-0.67944 1.94126,-0.67944 5.5326,-1.65007 0.67944,-0.29119 0,0 z"
     style="stroke-width:0.97063118000000004;fill:#E53E3E" />
  <path
     inkscape:connector-curvature="0"
     id="FL"
     data-name="Florida"
     data-id="FL"
     d="m 854.6867,535.28542 -0.19413,0 0.0971,0.0971 0.0971,-0.0971 z m -0.87357,-0.0971 0,0.0971 0.0971,0 -0.0971,-0.0971 z m 0.19413,-0.0971 0,-0.0971 0,0.0971 0,0 z m -13.20059,1.45594 0,0 0,0.0971 0,-0.0971 z m -0.19412,0.0971 0,-0.0971 0,0.0971 0,0 z m 0.0971,-0.0971 0,0 0,0 0,0 z m -0.97063,0.0971 -0.0971,0 0,0.0971 0.0971,-0.0971 z m 27.56592,-6.11498 -0.0971,0 0.0971,0.19412 0,-0.19412 z m 2.62071,-0.67944 0,-0.19413 -0.19413,0.29119 0.19413,-0.0971 z m -0.97063,-0.19413 -0.38826,-0.38825 -0.0971,0.0971 0.48532,0.29119 z m -0.29119,0.77651 -1.16476,-1.45595 0.67944,1.26182 0.48532,0.19413 z m 9.22099,-5.72673 0,0.38825 0.19413,-0.19412 -0.19413,-0.19413 z m 1.35889,-0.97063 0.29119,-0.48532 -0.38826,0.38826 0.0971,0.0971 z m 0.29119,-0.97063 -0.0971,0 0,0.0971 0.0971,-0.0971 z m -1.74714,-0.29119 -0.0971,-0.0971 0.0971,0.0971 0,0 z m 0.87357,-1.45595 -0.0971,-0.0971 0,0.19413 0.0971,-0.0971 z m -2.62071,-0.0971 -0.0971,-0.0971 0.0971,0.0971 0,0 z m 3.30015,-2.23245 -0.19413,0.0971 0.29119,0.0971 -0.0971,-0.19412 z m 0.38825,0 -0.19412,-0.19413 0.0971,0.29119 0.0971,-0.0971 z m -0.67944,-0.19413 -0.0971,-0.0971 0,0.19412 0.0971,-0.0971 z m 3.59134,-0.67944 0,-0.0971 -0.19413,0.38825 0.19413,-0.29119 z m -4.07665,0.38825 -0.19413,0 0.19413,0.0971 0,-0.0971 z m 2.03832,-1.16476 -0.29119,0 -0.0971,0.0971 0.38825,-0.0971 z m 0.77651,-0.48531 0,0 -0.0971,0 0.0971,0 z m -8.15331,0.38825 0,-0.19412 -0.0971,0.19412 0.0971,0 z m 0.87357,-0.29119 -0.29119,0 0.29119,0.58238 0,-0.58238 z m -2.32951,0.0971 0,-0.58238 -0.48532,0.0971 0.48532,0.48532 z m -1.35889,-0.97064 0.48532,0.48532 0,-0.19413 -0.48532,-0.29119 z m 14.26828,0.58238 -1.74713,0.77651 0.58237,0.0971 1.16476,-0.87357 z m -13.58883,-0.87356 -0.58238,0 0,0.19412 0.58238,-0.19412 z m 15.33597,-4.85316 0.0971,-0.48532 0.0971,-1.26182 -0.19412,1.74714 z m 0.0971,-5.43554 -0.38825,-0.97063 -0.19413,0.38826 0.58238,0.58237 z m -22.42158,2.42658 -0.19413,0.29119 0.48532,0.0971 -0.29119,-0.38825 z m -1.8442,-0.87357 -0.87357,0.29119 0.67945,0.0971 0.19412,-0.38826 z m -1.94126,0.19413 0,-0.29119 -0.0971,0.0971 0.0971,0.19413 z m -2.03833,-0.0971 -0.58238,0.38825 0.77651,0.38825 -0.19413,-0.7765 z m 2.71777,0.0971 -0.0971,-0.29119 -0.48532,-0.0971 0.58238,0.38825 z m -12.71527,-9.51219 -0.58238,0.29119 1.16476,0.38826 -0.58238,-0.67945 z m -2.32951,-3.10602 -0.77651,-1.16475 0.29119,0.87357 0.48532,0.29118 z m 3.00895,1.94127 -1.35888,-3.10602 -0.97063,-0.29119 2.32951,3.39721 z m -3.88252,-3.88253 -0.29119,-0.7765 -0.19413,-0.48532 0.48532,1.26182 z m -8.05624,-10.774 -1.74714,-1.26182 0.67945,0.67944 1.06769,0.58238 z m 43.6784,-6.50323 -7.0856,-11.8417 -0.38826,0 7.47386,11.8417 z m -49.01687,-18.92731 -0.29119,-0.0971 0.29119,0.19412 0,-0.0971 z m -0.58238,-0.67944 -0.0971,0.0971 0.0971,0.0971 0,-0.19412 z m -0.67944,-0.97063 0,-0.0971 -0.0971,0.0971 0.0971,0 z m 0.38825,-0.38826 0.29119,0.19413 0,-0.19413 -0.29119,0 z m 0.58238,-0.38825 -0.38825,0.0971 0.0971,0 0.29119,-0.0971 z m -0.67944,-0.0971 -0.29119,-0.29119 0.0971,0.0971 0.19413,0.19413 z m -0.67944,-1.0677 -0.19413,0 0.29119,0.0971 -0.0971,-0.0971 z m 0.67944,-1.16475 -0.38826,0 -0.0971,0.0971 0.48532,-0.0971 z m 0.38825,0.19412 -0.48532,-0.48531 0.19413,0.0971 0.29119,0.38825 z m -3.6884,-4.17371 -0.19413,-0.0971 0,0.0971 0.19413,0 z m -4.17371,0 -0.29119,-0.38825 0.0971,0.48531 0.19413,-0.0971 z m -35.33098,-3.20309 2.91189,-2.23245 -3.20308,2.13539 0.29119,0.0971 z m 5.82379,-4.65902 0.29119,-0.29119 -1.16476,0.48531 0.87357,-0.19412 z m -36.88399,-6.50323 -10.57988,3.39721 5.82379,-1.65008 4.75609,-1.74713 z m 26.30411,-16.50073 -2.81483,0.48531 -41.93127,6.79442 4.36784,9.9975 0.29119,0.0971 -1.06769,3.97959 3.10602,-1.35888 3.3972,-3.00896 5.82379,-0.19412 6.69736,-2.42658 4.56196,0.67944 -1.06769,1.65007 8.34743,2.81483 7.18267,3.49428 1.65007,3.88252 5.33847,-1.16476 12.61821,-10.28869 4.65903,0.19413 19.02437,14.36534 3.88252,-0.77651 4.07666,5.43554 0.7765,8.63862 -1.26182,5.43553 0.58238,2.71777 3.39721,6.79442 -1.55301,-5.33847 4.36784,-0.0971 0.38825,3.88253 -2.32951,6.01791 8.05624,11.0652 3.00895,0.0971 -2.52364,-3.39721 3.10602,0.38825 1.8442,-1.16475 -0.7765,6.21204 4.17371,3.30014 2.81483,7.57093 3.78546,2.32951 4.85316,1.26182 6.69735,8.54156 3.49428,1.84419 -4.65903,0.29119 2.13538,2.42658 7.66799,-2.52364 3.78546,-2.13539 3.49427,-12.22995 -1.74713,-19.02437 -0.38825,-1.94127 -9.31806,-15.53009 -7.95918,-11.25933 -4.4649,-9.22099 3.78546,3.20308 0.7765,-0.58238 1.65008,8.05624 4.27077,6.11498 -4.17371,-8.1533 0.19413,-3.88253 -12.52115,-15.23891 -3.00895,-4.75609 -3.97959,-8.05624 -2.71777,-6.79442 -2.13539,-2.42658 -0.48531,-3.10602 -0.0971,-0.0971 -6.69735,-0.38825 -2.62071,2.03832 -1.45594,7.47386 -1.35889,-3.49427 -45.81379,5.72672 -3.30014,-5.14434 0.0971,-0.0971 z"
     style="stroke-width:0.97063118000000004;fill:#E53E3E" />
  <path
     inkscape:connector-curvature="0"
     id="GA"
     data-name="Georgia"
     data-id="GA"
     d="m 845.85395,396.09691 -0.0971,-2.9119 -0.67944,2.52364 0.7765,0.38826 z m 1.0677,-4.46491 -0.38825,-2.23245 -0.29119,1.35889 0.67944,0.87356 z m -45.42554,-61.14976 -1.26182,0.29119 -3.6884,0.7765 -13.58884,2.81483 -1.26182,0.29119 -1.35888,0.19413 -7.57093,1.45595 -2.03832,0.38825 -8.25037,1.55301 -1.74713,0.19412 0.0971,0.19413 13.00646,39.60175 7.18267,12.81234 -1.74714,1.94126 -1.06769,7.57092 2.13539,3.88253 0.19412,7.0856 2.62071,4.95022 0,0.0971 -0.0971,0.0971 3.30014,5.14434 45.81379,-5.72672 1.35889,3.49427 1.45594,-7.47386 2.62071,-2.03832 6.69735,0.38825 0,0 -0.58237,-10.48282 1.26182,-2.23245 -0.67945,-4.17371 1.35889,-3.97959 2.03832,-2.23245 -1.45594,-1.35889 3.39721,-4.17371 -0.0971,0 -5.82378,-5.43554 -7.95918,-11.35638 -4.36784,-2.03833 -18.73318,-15.72422 -4.56197,-5.82379 -8.83274,-3.6884 -0.48532,-1.94126 2.71777,-5.33847 0,0 z"
     style="stroke-width:0.97063118000000004;fill:#E53E3E" />
  <path
     inkscape:connector-curvature="0"
     id="SC"
     data-name="South Carolina"
     data-id="SC"
     d="m 801.49611,330.48224 0,0 -2.71777,5.33847 0.48532,1.94126 8.83274,3.6884 4.56197,5.82379 18.73318,15.72422 4.36784,2.03833 7.95918,11.35638 5.82378,5.43554 0,0 0.97063,-4.4649 -1.55301,-4.27078 4.17372,3.10602 2.32951,-1.8442 -3.97959,-3.30015 4.85316,-0.29119 7.57092,-6.40616 -0.87356,-1.65008 4.65903,-3.59133 -0.48532,-1.74714 3.39721,-2.13539 0.19413,-4.95022 5.33847,-9.90043 3.59133,-4.56197 0.38826,-0.19413 -21.64508,-13.6859 -8.05624,1.55301 -10.96813,-0.38825 -5.43554,-2.81483 -32.22495,10.19163 -0.29119,0 z"
     style="stroke-width:0.97063118000000004;fill:#E53E3E" />
  <path
     inkscape:connector-curvature="0"
     id="IN"
     data-name="Indiana"
     data-id="IN"
     d="m 750.34384,200.22353 -14.85065,2.62071 -3.39721,0.67944 -12.03583,1.94126 -2.52364,2.03833 -3.78546,1.74713 -1.45595,-0.0971 -1.74714,-0.87357 -0.58237,-0.58238 6.79441,47.85212 -1.35888,5.14435 2.42658,4.56196 0.7765,3.78546 -3.68839,8.63862 -2.13539,1.55301 -0.0971,8.63862 0.38826,0.0971 0.38825,-0.0971 1.45595,-2.71777 3.59133,0 4.36784,-1.45595 5.43554,2.03833 0.58237,-2.23245 3.10602,-2.32952 4.65903,0.67945 2.52365,-4.95022 6.89148,0.58237 -0.0971,-2.81483 6.11498,-8.05623 -0.97063,-3.6884 4.27078,-0.0971 5.2414,-4.17371 -1.26182,-4.75609 0.19413,-0.19413 -0.19413,-1.65007 -5.82378,-34.36035 -2.62071,-14.65653 -0.29119,-1.55301 -0.29119,-1.26182 z"
     style="stroke-width:0.97063118000000004;fill:#E53E3E" />
  <path
     inkscape:connector-curvature="0"
     id="KY"
     data-name="Kentucky"
     data-id="KY"
     d="m 693.17367,317.18459 -0.29119,-0.7765 -0.58238,-0.19413 -0.38825,1.26182 0.0971,0.0971 1.06769,-0.0971 0.0971,-0.29119 z m 66.39117,-63.47928 -0.19413,0.19413 1.26182,4.75609 -5.2414,4.17371 -4.27078,0.0971 0.97063,3.6884 -6.11498,8.05623 0.0971,2.81483 -6.89148,-0.58237 -2.52365,4.95022 -4.65903,-0.67945 -3.10602,2.32952 -0.58237,2.23245 -5.43554,-2.03833 -4.36784,1.45595 -3.59133,0 -1.45595,2.71777 -0.38825,0.0971 0,0.29119 -1.45595,3.30015 1.65007,2.32951 -6.11497,3.59134 1.45594,4.27077 -1.8442,2.13539 -7.47386,-2.03832 -1.94126,4.56196 0.58238,0.58238 0.19413,0.38826 -0.87357,7.95917 -0.38826,0.19413 -2.52364,1.55301 -0.0971,0.29119 2.81483,-0.38826 19.60675,-2.6207 -0.97063,-3.88252 3.30015,-0.0971 39.50469,-5.24141 27.76005,-4.65903 0.38825,-0.29119 0.67944,-0.7765 7.27974,-3.88252 5.62966,-7.3768 0.7765,-2.52364 3.6884,-2.9119 4.65903,-5.92085 0.67944,-0.97063 -0.29119,-0.0971 -2.42657,0 -3.10602,-1.74714 -5.5326,-6.69735 -1.94126,-6.79442 0,-0.19413 -0.19413,-0.19412 -4.07665,-2.32952 -1.8442,-3.10602 -3.6884,3.59134 -2.32951,0.58238 -2.9119,-1.16476 -2.52364,1.94126 -5.24141,-2.32951 -1.35888,0.58237 -4.95022,-4.27077 -2.52364,-1.26182 -4.75609,0.58238 -0.77651,0.7765 z"
     style="stroke-width:0.97063118000000004;fill:#E53E3E" />
  <path
     inkscape:connector-curvature="0"
     id="NC"
     data-name="North Carolina"
     data-id="NC"
     d="m 890.2118,332.22937 -1.06769,1.0677 0.19412,0.19413 0.87357,-1.26183 z m 0.7765,-5.62966 -0.48531,0.77651 0.19413,0.7765 0.29118,-1.55301 z m 5.82379,-9.02687 -1.45594,0.97063 -0.77651,1.16476 2.23245,-2.13539 z m 12.52114,-6.11497 -0.58237,-0.38826 -1.26182,-0.0971 1.84419,0.48532 z m -2.6207,-0.58238 -0.87357,0 -1.45594,0.7765 2.32951,-0.7765 z m 3.00896,1.06769 2.81483,-6.98854 -1.94126,2.91189 -0.87357,4.07665 z m 4.17371,-9.22099 1.26182,-1.8442 -0.67944,0 -0.58238,1.8442 z m 8.1533,-7.57093 -2.13539,-10.774 1.8442,5.62966 0.29119,5.14434 z m -11.8417,-24.55697 -0.19412,0.0971 -0.29119,0.0971 0,0 0.0971,0 5.33847,9.02687 4.17372,4.17371 -9.12394,-13.39471 0,0 z m -1.74713,0.58238 -0.77651,0.19413 0,0 0.19413,0.0971 1.65007,0 -0.19413,-0.58238 0,0 -0.29118,0.0971 -0.29119,0 0,0 0,0.19412 -0.19413,0.0971 -0.0971,-0.0971 0,0 z m -89.78339,22.13039 -0.48532,1.45595 0.0971,4.17371 -1.0677,-0.0971 -2.52364,5.14435 -2.81483,0.29119 -5.24141,5.14434 -2.32951,-0.87357 -3.00896,4.46491 -7.95917,7.18267 -3.88253,0.97063 -4.07665,3.78546 -0.19413,2.52364 -3.59133,1.94126 0.0971,4.27078 0,0.97063 1.26182,-0.29119 13.58884,-2.81483 3.6884,-0.7765 1.26182,-0.29119 0.29119,0 32.22495,-10.19163 5.43554,2.81483 10.96813,0.38825 8.05624,-1.55301 21.64508,13.6859 0.38825,-0.29119 9.9975,-4.07665 0.0971,-5.33847 3.59134,-6.50323 3.88252,-3.6884 8.05624,-5.33847 1.0677,-1.94126 2.13538,0.97063 0.97064,-6.40616 -1.16476,2.23245 -4.07665,1.35888 -3.88253,0.0971 4.7561,-3.49427 -1.45595,-1.55301 1.65007,-3.49427 -9.12393,-1.45595 -0.38825,-0.48531 7.76505,-1.45595 2.52364,1.26182 3.20308,-0.29119 2.6207,-1.94126 1.94127,-3.78546 1.74713,-0.48532 -0.29119,-5.33847 -2.23245,-2.13539 -2.23245,2.03833 0.48531,5.14434 -1.65007,-6.3091 -1.26182,-0.29119 -9.60925,3.97959 4.27078,-4.17372 0.19413,-1.65007 4.4649,-1.06769 1.26182,-3.30015 3.00896,1.74714 -3.20309,-4.7561 -2.23245,-1.94126 0,0 -38.82525,11.0652 -24.75109,6.3091 -25.04229,4.65903 -0.0971,-0.19413 z"
     style="stroke-width:0.97063118000000004;fill:#E53E3E" />
  <path
     inkscape:connector-curvature="0"
     id="OH"
     data-name="Ohio"
     data-id="OH"
     d="m 818.19096,206.6297 -2.42657,-10.48282 -0.48532,-2.13539 -2.71777,-11.93876 -3.49427,2.23245 -7.47386,5.72672 -4.85315,5.92085 -3.78547,0.58238 -6.98854,3.97959 -3.88253,-2.32951 -11.74463,-1.35889 0,0 -6.21204,1.55301 -6.11498,1.45595 -6.40617,1.35888 -0.97063,0.29119 0.29119,1.55301 2.62071,14.65653 5.82378,34.36035 0.19413,1.65007 0.77651,-0.7765 4.75609,-0.58238 2.52364,1.26182 4.95022,4.27077 1.35888,-0.58237 5.24141,2.32951 2.52364,-1.94126 2.9119,1.16476 2.32951,-0.58238 3.6884,-3.59134 1.8442,3.10602 4.07665,2.32952 0.19413,0.19412 0,0 4.17371,-2.03832 1.45595,-3.20309 -1.16476,-3.30014 3.30014,-5.04728 2.42658,-0.38826 -0.29119,-4.27077 3.97959,-5.43554 0.67944,0.77651 3.59134,-2.71777 3.10602,-4.65903 0.48531,-21.25682 0.19413,-0.0971 -0.48532,-2.03832 z"
     style="stroke-width:0.97063118000000004;fill:#E53E3E" />
  <path
     inkscape:connector-curvature="0"
     id="VA"
     data-name="Virginia"
     data-id="VA"
     d="m 908.75086,270.98255 0.29119,0 0.29118,-0.0971 0,0 -0.19412,-0.48531 -0.38825,0.58238 0,0 z m -3.30015,-10.87107 0,0.48531 0.48532,-0.29119 -0.48532,-0.19412 z m 1.74714,-3.39721 -0.0971,-0.77651 0,0 0.0971,0.77651 z m -0.58238,1.16475 -0.19413,1.26183 -0.29119,0.48531 0.48532,-1.74714 z m 0.87357,-2.52364 0.0971,-0.58238 -0.19413,0.58238 0.0971,0 z m 0.58237,-2.6207 0.29119,-0.67944 -0.48531,1.74713 0.19412,-1.06769 z m 0.0971,-1.45595 0.38825,-2.13539 -0.48532,0.48532 0.0971,1.65007 z m 1.74713,-9.60925 0.19413,-0.87356 -0.0971,0.19412 -0.0971,0.67944 z m -0.38825,-2.23245 -1.26182,0.48532 -1.94126,0.87357 -0.67944,0.87356 0.29119,0.0971 -2.32952,14.4624 0.87357,2.32952 1.35888,-6.01792 2.52364,-7.86211 1.16476,-5.14435 0,-0.0971 z m 1.94126,-0.7765 -0.29119,0.0971 -0.0971,0.38825 -0.48531,3.00896 0.38825,-1.0677 0.48531,-2.42657 z m -101.43096,37.17517 -0.67944,0.97063 -4.65903,5.92085 -3.6884,2.9119 -0.7765,2.52364 -5.62966,7.3768 -7.27974,3.88252 -0.67944,0.7765 1.74714,-0.29118 16.59779,-3.39721 6.60029,-1.35889 5.5326,-1.55301 1.55301,-0.29119 0.0971,0.19413 25.04229,-4.65903 24.75109,-6.3091 38.82525,-11.0652 0,0 -0.29119,-0.48531 -0.0971,-0.29119 0.67944,0.67944 0,0 0,0 0.77651,-0.19413 -0.0971,-0.0971 -0.67944,-3.30015 0.48532,0.0971 1.55301,2.91189 0,0 0,0 0.29119,-0.0971 0.19412,-0.0971 -0.38825,-0.7765 -3.97959,-6.11498 -4.95022,0.87357 -2.23245,1.8442 -2.13539,-1.94126 -7.27973,-2.42658 -5.04728,-0.19413 9.80337,-0.87357 5.43554,3.6884 1.55301,-2.42658 -4.36784,-5.53259 3.10602,0.19412 -1.65008,-4.4649 -3.88252,0.19413 -9.221,-7.47386 -1.16476,0 13.00646,6.40616 -0.87357,-4.4649 0.87357,-1.45595 -6.60029,-2.52364 -5.72672,-0.38825 -2.81483,-2.52364 -2.32952,1.45594 -0.87357,-6.69735 0.97063,0.19412 -0.19412,-5.43553 -0.19413,-0.19413 -0.19413,0.0971 -0.19412,-0.0971 -0.48532,-0.38825 -0.29119,-0.29119 -3.10602,-1.35888 -3.20308,-2.32952 -4.4649,-1.16475 -0.29119,-0.0971 0,0.0971 -0.58238,4.07665 -9.02687,-3.88253 0.19413,5.62966 -4.95022,9.41513 -3.00896,3.30014 -1.94126,5.72673 -5.92085,-2.03833 -2.9119,13.20058 -2.32951,4.46491 -0.38825,5.82379 -1.74714,2.81483 -6.50323,1.94126 -5.33847,4.17371 -2.52364,0.38825 -2.42658,2.13539 -6.11498,-2.23245 -1.06769,-3.00896 -0.19413,-0.0971 z"
     style="stroke-width:0.97063118000000004;fill:#E53E3E" />
  <path
     inkscape:connector-curvature="0"
     id="WV"
     data-name="West Virginia"
     data-id="WV"
     d="m 836.73002,223.71281 -13.78296,3.39721 -4.27078,-18.442 0,0 -0.19413,0.0971 -0.48531,21.25682 -3.10602,4.65903 -3.59134,2.71777 -0.67944,-0.77651 -3.97959,5.43554 0.29119,4.27077 -2.42658,0.38826 -3.30014,5.04728 1.16476,3.30014 -1.45595,3.20309 -4.17371,2.03832 0,0 0,0.19413 1.94126,6.79442 5.5326,6.69735 3.10602,1.74714 2.42657,0 0.29119,0.0971 0.19413,0.0971 1.06769,3.00896 6.11498,2.23245 2.42658,-2.13539 2.52364,-0.38825 5.33847,-4.17371 6.50323,-1.94126 1.74714,-2.81483 0.38825,-5.82379 2.32951,-4.46491 2.9119,-13.20058 5.92085,2.03833 1.94126,-5.72673 3.00896,-3.30014 4.95022,-9.41513 -0.19413,-5.62966 9.02687,3.88253 0.58238,-4.07665 0,-0.0971 0,0 -2.81483,-4.85315 -5.82379,-0.67945 -3.39721,2.62071 0,1.94126 -2.91189,0.67944 -4.27078,3.00896 -2.23245,0.48532 -4.46491,6.3091 -2.23245,-10.19163 -1.94126,0.48532 z"
     style="stroke-width:0.97063118000000004;fill:#E53E3E" />
  <path
     inkscape:connector-curvature="0"
     id="DE"
     data-name="Delaware"
     data-id="DE"
     d="m 893.80314,207.69739 0.38825,1.45595 8.05624,23.00396 9.22099,-2.71777 -0.0971,-0.19413 0.19413,0 0.29119,0.0971 0,0 0.19412,-0.0971 -0.19412,-0.38825 -2.32952,-6.21204 -11.35638,-10.774 0.48531,-7.47386 0,0 -2.32951,0 -1.74714,1.35888 -0.7765,1.94126 0,0 z"
     style="stroke-width:0.97063118000000004;fill:#E53E3E" />
  <path
     inkscape:connector-curvature="0"
     id="DC"
     data-name="District of Columbia"
     data-id="DC"
     d="m 878.17597,229.14834 0.48532,0.38825 0.19412,0.0971 0.19413,-0.0971 0.19413,0.0971 0.67944,0.38825 0.19413,0.29119 0,0.67944 0.19412,0.38825 1.26182,-2.32951 -1.35888,-0.77651 -1.65007,0.0971 -0.38826,0.7765 z"
     style="stroke-width:0.97063118000000004;fill:#E53E3E" />
  <path
     inkscape:connector-curvature="0"
     id="MD"
     data-name="Maryland"
     data-id="MD"
     d="m 911.56569,238.27227 0.67944,-5.2414 -0.58238,3.88252 -0.38825,1.65007 -0.0971,0.19413 0.29119,-0.0971 0.0971,-0.38826 z m 0.48531,-9.02687 -0.19412,0.0971 0.19412,0.58238 0,1.16475 0,-1.8442 0,0 z m -73.37972,-6.01791 2.23245,10.19163 4.46491,-6.3091 2.23245,-0.48532 4.27078,-3.00896 2.91189,-0.67944 0,-1.94126 3.39721,-2.62071 5.82379,0.67945 2.81483,4.85315 0,0 0.29119,0.0971 4.4649,1.16475 3.20308,2.32952 3.10602,1.35888 0.29119,0.29119 0.38826,-0.7765 1.65007,-0.0971 1.35888,0.77651 -1.26182,2.32951 0,0.0971 -1.8442,5.62966 6.01792,3.88252 6.01791,0.29119 3.97959,1.8442 -1.65008,-4.65903 -5.14434,-1.74714 -1.26182,-3.97958 3.20308,4.27077 2.62071,0.38826 -2.32952,-2.32952 -1.8442,-6.89148 0.48532,-3.97959 -2.03833,-4.36784 2.13539,-1.74713 1.55301,-5.62967 -0.58238,8.34743 1.65007,2.81483 1.55301,-3.30014 0.87357,5.43553 -1.65007,3.97959 4.75609,1.74714 -4.07665,1.35888 2.13539,3.97959 3.49427,1.16475 1.94126,-3.3972 -0.19412,4.75609 3.30014,-0.0971 2.13539,2.42657 0.0971,0 0.67944,-0.87356 1.94126,-0.87357 1.26182,-0.48532 -0.0971,-0.19412 2.52364,-7.47386 0,-0.29119 -0.48532,-1.94127 0,-0.0971 -9.22099,2.71777 -8.05624,-23.00396 -0.38825,-1.45595 -1.65008,0.48532 -6.89148,2.13539 -37.95168,10.57988 -6.89148,1.8442 -1.74714,0.48531 z"
     style="stroke-width:0.97063118000000004;fill:#E53E3E" />
  <path
     inkscape:connector-curvature="0"
     id="NJ"
     data-name="New Jersey"
     data-id="NJ"
     d="m 916.80709,207.30914 -0.48531,-1.16476 0,1.16476 0.48531,0 z m 0.97064,-3.59134 0.29119,-2.91189 -0.58238,2.52364 0.29119,0.38825 z m -3.97959,-29.79837 -10.19163,-2.52365 -1.74714,-0.48531 -1.65007,-0.38825 0,0 -4.07665,9.02687 1.74714,2.13539 -0.0971,6.50322 1.8442,0.29119 3.78546,9.90044 -0.19412,0.29119 -4.75609,6.98855 0.48531,5.33847 11.45345,3.88252 0.0971,4.46491 2.62071,-3.6884 0.38825,-5.33847 2.71777,-1.8442 -1.0677,-3.97959 2.03833,-4.75609 0,-10.38576 -0.67944,-3.39721 -4.56197,0.0971 1.16476,-4.65903 0.67944,-7.47386 0,0 z"
     style="stroke-width:0.97063118000000004;fill:#E53E3E" />
  <path
     inkscape:connector-curvature="0"
     id="NY"
     data-name="New York"
     data-id="NY"
     d="m 913.50695,181.78154 -1.45595,2.03832 -0.38825,0.58238 1.8442,-2.6207 z m 13.39471,-4.75609 4.85316,-4.27078 0,-0.19413 -4.85316,4.46491 z m -12.71527,3.00895 0,-3.30014 -0.29119,1.74713 0.29119,1.55301 z m 22.51864,-15.5301 -1.16475,-0.29119 -0.19413,0.87357 1.35888,-0.58238 z m 2.62071,-1.74713 -0.0971,0.97063 0.19412,-0.58238 -0.0971,-0.38825 z m -2.71777,0.0971 -6.50323,6.01791 -9.9975,4.27078 -2.6207,2.23245 -0.19413,2.13539 -2.71777,2.23245 0.38826,2.9119 4.17371,-1.65008 6.11498,-4.95022 6.79441,-3.59133 10.2887,-9.70631 -7.27974,5.53259 -2.32951,0.97064 3.88252,-6.40617 z m 3.00896,-4.07665 0.38825,-0.58238 -1.16476,1.35888 0.77651,-0.7765 z m -109.09895,-3.59134 -1.55301,-0.19412 1.16476,1.55301 0.38825,-1.35889 z m 32.22496,-29.70131 0.19412,-1.0677 -0.7765,0.97064 0.58238,0.0971 z m 0.48531,-6.98855 -0.38825,0.19413 -0.48532,1.06769 0.87357,-1.26182 z m -41.0577,55.13186 0.67944,2.91189 5.14435,1.26182 29.50719,-8.05624 29.70131,-8.92981 5.43554,4.17372 1.06769,2.42658 6.3091,2.71776 0.19413,0.38826 1.65007,0.38825 1.74714,0.48531 10.19163,2.52365 -0.19413,-0.48532 0.87357,3.97959 1.94126,-0.48532 1.0677,-4.36784 0,-0.0971 -1.74714,-1.65007 2.52364,-3.10602 -1.16476,-1.45595 -3.68839,-14.26828 -0.19413,-0.97063 -0.48532,-0.29119 -0.29119,-4.27078 -0.29119,-4.65903 -0.29118,-5.04728 0,-0.29119 -0.19413,0.0971 -4.85316,-15.91835 -5.14434,-8.05624 -1.45595,-9.60924 -4.36784,-10.191633 -0.58238,0.29119 -20.28619,6.794418 -4.07665,4.367845 -4.56197,8.73568 0.19413,1.94126 -6.01791,9.12393 3.68839,1.26182 1.0677,6.89148 -4.27078,5.62967 -12.81233,7.76504 -2.42658,-0.97063 -9.51218,1.35889 -8.83275,5.33847 0.48532,2.81483 3.10602,2.71777 -1.74714,8.54155 -6.98854,8.1533 -0.0971,0.0971 z"
     style="stroke-width:0.97063118000000004;fill:#E53E3E" />
  <path
     inkscape:connector-curvature="0"
     id="PA"
     data-name="Pennsylvania"
     data-id="PA"
     d="m 900.01517,170.13396 -6.3091,-2.71776 -1.06769,-2.42658 -5.43554,-4.17372 -29.70131,8.92981 -29.50719,8.05624 -5.14435,-1.26182 -0.67944,-2.91189 -1.65007,1.26182 -2.6207,1.8442 -4.7561,4.85315 -0.58238,0.48532 2.71777,11.93876 0.48532,2.13539 2.42657,10.48282 0.48532,2.03832 0,0 4.27078,18.442 13.78296,-3.39721 1.94126,-0.48532 1.74714,-0.48531 6.89148,-1.8442 37.95168,-10.57988 6.89148,-2.13539 1.65008,-0.48532 0,0 0.7765,-1.94126 1.74714,-1.35888 2.32951,0 0.29119,-0.87357 3.78546,-4.27078 0.38825,-0.67944 0.29119,-0.19413 -3.78546,-9.90044 -1.8442,-0.29119 0.0971,-6.50322 -1.74714,-2.13539 4.07665,-9.02687 0,0 -0.19413,-0.38826 z"
     style="stroke-width:0.97063118000000004;fill:#E53E3E" />
  <path
     inkscape:connector-curvature="0"
     id="ME"
     data-name="Maine"
     data-id="ME"
     d="m 946.7996,118.39932 -0.0971,0 0.19412,0.0971 -0.0971,-0.0971 z m 7.18267,-20.674443 -0.77651,-1.164758 0,0.582379 0.77651,0.582379 z m -1.35888,-1.067695 0,-0.970631 -0.0971,-0.582379 0.0971,1.55301 z m 3.49427,-4.076651 -0.19413,-0.09706 0.0971,0.291189 0.0971,-0.194126 z m 9.70631,-4.853156 -0.19413,-1.455947 -0.38825,0.679442 0.58238,0.776505 z m -2.42658,0.582379 0.0971,-1.067694 -1.16476,0.194126 1.06769,0.873568 z m 3.59134,-3.203083 -0.38825,0 0,0.194126 0.38825,-0.194126 z m -4.85316,1.455947 -0.87357,-0.194126 -0.0971,0.873568 0.97063,-0.679442 z m 4.95022,-3.008957 0.87357,0.679442 -0.29119,-0.776505 -0.58238,0.09706 z m -2.6207,0.09706 -0.87357,1.650073 1.16476,-0.582379 -0.29119,-1.067694 z m -4.17372,0.09706 -0.38825,0.582379 0.29119,0.873568 0.0971,-1.455947 z m 5.72673,-3.203083 -0.0971,-0.776505 -0.29119,0.485316 0.38826,0.291189 z m -0.48532,0.388253 -0.87357,-0.776505 0,0.679442 0.87357,0.09706 z m -5.43553,2.232452 -0.19413,-1.067695 -0.38825,0.873568 0.58238,0.194127 z m 9.22099,-3.39721 -1.45594,2.135389 -0.0971,-1.55301 1.55301,-0.582379 z m 7.08561,-6.503229 -0.67944,-0.970631 -0.38825,0.194126 1.06769,0.776505 z m 2.6207,-4.36784 -0.58237,-0.291189 -0.0971,0.291189 0.67944,0 z m 1.26183,-7.570923 -0.87357,0 0.97063,0.291189 -0.0971,-0.291189 z m 1.45594,0.970631 -0.29119,-1.747136 -0.7765,-0.09706 1.06769,1.8442 z m -1.55301,-1.55301 -0.19412,-1.844199 -0.67945,1.26182 0.87357,0.582379 z m -56.29661,15.23891 14.07415,33.001458 0.19413,0.67944 6.11498,7.47386 0,-0.0971 0.97063,-0.29119 0.19413,-5.5326 1.55301,-1.94126 0.97063,-5.14435 -0.87357,-0.87357 1.65007,-5.047274 5.62966,-2.620704 3.6884,-4.464904 1.35888,-7.765049 5.92085,-0.388253 -0.7765,-3.979588 7.3768,-2.81483 0.48531,-4.36784 1.74714,0.388252 4.85315,-3.979588 2.13539,-5.144345 -4.95022,-4.950219 -5.2414,-1.067695 -1.94127,-3.979588 0,-2.329515 -3.20308,0.970632 -3.59134,-1.261821 0,-3.979588 -9.70631,-20.965634 -7.0856,-3.688398 -7.86212,6.600292 -2.13539,-0.388253 -1.8442,-3.397209 -2.52364,0.970631 -3.59133,17.859614 1.26182,5.823788 1.06769,11.8417 -2.81483,9.123934 1.94126,1.455946 -2.32951,4.464904 -2.52364,-0.388253 -0.19413,0.194127 z"
     style="stroke-width:0.97063118000000004;fill:#E53E3E" />
  <path
     inkscape:connector-curvature="0"
     id="MI"
     data-name="Michigan"
     data-id="MI"
     d="m 719.96309,138.2002 -0.48532,-0.77651 -0.0971,0.97063 0.58238,-0.19412 z m 1.55301,-1.74714 -1.16476,-1.55301 -0.19413,0.67944 1.35889,0.87357 z m 0.97063,-6.98854 -0.97063,-0.87357 0,0.19412 0.97063,0.67945 z m -2.42658,76.00042 12.03583,-1.94126 3.39721,-0.67944 14.85065,-2.62071 0.29119,1.26182 0.97063,-0.29119 6.40617,-1.35888 6.11498,-1.45595 6.21204,-1.55301 -0.0971,-0.29119 3.20309,-6.3091 -0.29119,-5.24141 3.59133,-9.02687 2.81483,1.65007 1.0677,-2.03832 -0.29119,-7.76505 -2.62071,-4.85316 -3.88252,-10.28869 -3.39721,-3.78546 -1.74714,-0.48531 -6.3091,4.36784 0.67944,0.87356 -3.30014,6.21204 -3.20309,-0.58238 -0.97063,-6.50322 1.35889,-0.48532 2.81483,-6.50323 0.29119,-11.45345 -4.36784,-9.70631 -9.70632,-1.65007 -0.97063,-1.45595 -9.02687,-2.6207 -4.07665,5.04728 0.38825,4.36784 -3.10602,3.88252 0.67945,6.01792 -3.00896,2.13539 0,-7.57093 -2.71777,5.72673 -3.20308,5.04728 -2.13539,1.65007 1.06769,5.33847 -1.35888,5.5326 0.77651,6.89148 -0.97064,3.39721 6.98855,13.39471 0.87357,5.14435 -0.87357,9.51218 -4.65903,10.67695 -0.58238,0.38825 z m 20.77151,-87.45387 -2.52364,0.19412 1.55301,1.16476 0.97063,-1.35888 z m -14.7536,2.52364 -0.7765,0 0.87357,0.38825 -0.0971,-0.38825 z m 16.98605,-12.32702 -0.97063,-1.55301 -0.38825,0.0971 1.35888,1.45594 z m -87.93919,7.08561 3.10602,1.74714 15.91835,4.85315 7.3768,1.94127 7.18267,0.48531 5.24141,4.27078 0,6.60029 4.65903,4.65903 0,-0.0971 3.78546,-10.96814 4.56197,-3.20308 3.49427,-3.88252 0.58238,3.49427 3.59134,-5.5326 8.63861,-3.30014 0.67945,-1.35889 8.73568,1.0677 3.39721,1.74713 1.65007,-4.27077 1.55301,0.97063 6.79442,-1.0677 -1.65008,-2.71777 -3.00895,-1.74713 0.58238,-6.3091 -5.92085,3.30014 -5.43554,-0.67944 -1.74714,-4.17371 0.58238,-1.358888 -7.37679,3.494268 -4.7561,0.29119 -8.54155,5.24141 -0.97063,1.94126 -5.24141,-1.26182 -3.30015,1.45595 -6.60029,-5.72672 -14.65653,-4.46491 -0.29119,-1.747133 -9.41512,9.026873 -5.33847,1.35888 -7.57093,5.72673 -0.29119,0.19412 z m 34.36035,-22.033327 -11.35639,5.629661 3.78546,3.688396 1.45595,-3.688396 3.88253,-4.756093 2.23245,-0.873568 z M 676.77,79.962326 l -7.76505,5.338471 -0.38825,2.620704 6.11497,-4.464903 2.03833,-3.494272 z"
     style="stroke-width:0.97063118000000004;fill:#E53E3E" />
</svg>
