<?xml version="1.0" encoding="UTF-8" standalone="no"?>
<!--
************* Copyright (c) 2017 Pareto Softare, LLC DBA Simplemaps.com *******************		
************* Free for Commercial Use, full terms at  http://simplemaps.com/resources/svg-license ************
************* Attribution is appreciated! http://simplemaps.com ***************************
-->

<svg
   xmlns:dc="http://purl.org/dc/elements/1.1/"
   xmlns:cc="http://creativecommons.org/ns#"
   xmlns:rdf="http://www.w3.org/1999/02/22-rdf-syntax-ns#"
   xmlns:svg="http://www.w3.org/2000/svg"
   xmlns="http://www.w3.org/2000/svg"
   xmlns:sodipodi="http://sodipodi.sourceforge.net/DTD/sodipodi-0.dtd"
   xmlns:inkscape="http://www.inkscape.org/namespaces/inkscape"
   enable_background="new 0 0 250 180"
   height="180px"
   pretty_print="False"
   style="stroke-linejoin: round; stroke:#000; fill: none;"
   version="1.1"
   viewBox="0 0 1000 589"
   width="250px"
   id="svg"
   inkscape:version="0.48.4 r9939"
   sodipodi:docname="us.svg">
  <sodipodi:namedview
     pagecolor="#ffffff"
     bordercolor="#666666"
     borderopacity="1"
     objecttolerance="10"
     gridtolerance="10"
     guidetolerance="10"
     inkscape:pageopacity="0"
     inkscape:pageshadow="2"
     inkscape:window-width="1920"
     inkscape:window-height="1137"
     id="namedview69"
     showgrid="false"
     inkscape:zoom="0.80893016"
     inkscape:cx="817.66365"
     inkscape:cy="409.3738"
     inkscape:window-x="1192"
     inkscape:window-y="118"
     inkscape:window-maximized="1"
     inkscape:current-layer="svg2" />
  <defs
     id="defs4">
    <style
       type="text/css"
       id="style6">path { fill-rule: evenodd; }</style>
  </defs>
  <metadata
     id="metadata8">
    <views
       id="views10">
      <view
         h="180"
         padding="0"
         w="250"
         id="view12">
        <proj
           id="laea-usa"
           lat0="45"
           lon0="-100" />
        <bbox
           h="180"
           w="250"
           x="700"
           y="50"
           id="bbox15" />
      </view>
    </views>
    <rdf:RDF>
      <cc:Work
         rdf:about="">
        <dc:format>image/svg+xml</dc:format>
        <dc:type
           rdf:resource="http://purl.org/dc/dcmitype/StillImage" />
        <dc:title />
      </cc:Work>
    </rdf:RDF>
  </metadata>
  <path
     inkscape:connector-curvature="0"
     id="WA"
     data-name="Washington"
     data-id="WA"
     d="m 192.13384,77.050432 0.0971,-1.650073 -0.19412,0.09706 0.0971,1.55301 z m 20.67445,-8.832744 0.58237,-0.970631 -0.67944,-0.09706 0.0971,1.067694 z m -1.8442,-1.747136 0.58237,-1.941262 -0.58237,-0.194127 0,2.135389 z m 7.0856,-2.814831 -0.0971,-1.941262 -1.65007,2.523641 1.74713,-0.582379 z m 0.19413,-4.076651 0.29119,-1.941262 -0.19413,-0.485316 -0.0971,2.426578 z m 0.29119,-9.512185 -0.0971,-1.067695 -0.38826,-0.09706 0.48532,1.164758 z m 3.10602,-6.406166 -0.87357,-0.09706 -1.74713,2.717767 2.6207,-2.620704 z m -2.42658,-2.620705 0.48532,-0.388252 0.0971,-0.291189 -0.58238,0.679441 z m -0.48531,0.29119 -0.29119,-1.941263 -0.87357,1.650073 1.16476,0.29119 z m -0.48532,-2.717768 -0.87357,-0.388252 0.67944,0.970631 0.19413,-0.582379 z m 2.91189,1.650074 0,-1.261821 -0.29119,0.485316 0.29119,0.776505 z m 0.87357,-1.261821 -0.38825,-0.291189 -0.0971,0 0.48531,0.291189 z m -5.5326,-2.135389 -0.48531,-0.388252 -0.19413,-0.09706 0.67944,0.485315 z m 3.59134,-0.388252 -2.6207,0.679442 0.67944,0.194126 1.94126,-0.873568 z m -2.13539,-0.194126 -0.48531,-0.582379 -0.0971,0.09706 0.58238,0.485316 z m 2.03833,-1.164758 -0.38826,0 0.48532,0.194126 -0.0971,-0.194126 z m -19.02438,49.793381 3.49428,3.785461 -0.58238,7.279734 0.67944,1.8442 5.24141,2.81483 14.75359,1.35888 0.58238,1.74714 6.98855,0.0971 6.60029,0.87357 10.774,-1.16476 5.33848,0.87357 1.45594,-0.67944 27.27474,6.21204 1.8442,0.38825 -0.19413,-0.97063 0.38826,-4.36784 -0.48532,-4.17371 11.25932,-50.666952 -1.55301,-0.29119 -22.71277,-5.338471 -19.80087,-5.047282 -22.42159,-6.21204 -6.69735,-1.650073 1.55301,8.444491 -1.45595,2.717768 -2.6207,-1.358884 2.52364,11.744637 -2.71777,3.882525 -1.26182,3.591336 0,3.688398 -5.72672,3.979588 -2.42658,-1.55301 -2.32952,1.164758 4.27078,-5.532598 -1.06769,3.785462 2.42658,-2.620705 1.94126,0.388253 -0.58238,-4.853156 1.26182,0.194126 2.6207,-5.823787 -0.87356,-0.873568 -3.39721,4.36784 -2.23246,0.09706 2.42658,-2.717767 2.71777,-0.679442 -0.97063,-4.950219 -2.71777,-0.679442 -1.35888,-2.329515 -1.65008,0.873568 -8.9298,-3.882524 -7.86211,-6.114977 -2.13539,5.92085 -0.19413,2.523641 1.65007,4.464904 -1.06769,14.462405 -0.77651,2.232452 4.36784,0.388252 -4.36784,3.10602 2.32952,1.164757 -1.8442,6.21204 -0.87357,-4.853156 -1.65007,5.629661 2.23245,2.717767 2.42658,-0.194126 2.91189,1.747136 1.45595,2.814831 1.74713,0 0,0 z"
     style="stroke-width:0.97063118000000004;fill:#3182CE" />
  <path
     inkscape:connector-curvature="0"
     id="CA"
     data-name="California"
     data-id="CA"
     d="m 206.01387,363.77489 0.38825,2.13539 0,0.38825 -0.38825,-2.52364 z m -14.26828,-8.34743 0.67944,1.45595 0.38825,-0.0971 -1.06769,-1.35888 z m 16.98604,-0.29119 0.29119,2.52364 1.74714,1.26182 -2.03833,-3.78546 z m -11.74463,-13.78296 -1.0677,-0.29119 0.87357,0.38825 0.19413,-0.0971 z m -10.77401,-2.9119 -2.6207,1.55301 0.67944,0.67945 1.94126,-2.23246 z m -5.04728,-1.8442 -0.19413,0.77651 0.87357,0.19413 -0.67944,-0.97064 z m 8.54155,1.94127 4.27078,2.42658 0.77651,-0.67945 -5.04729,-1.74713 z m -33.09852,-85.51261 -0.0971,0.0971 0.0971,-0.0971 0,0 z m 10.38575,0.48531 -0.0971,-0.29119 0,0.38826 0.0971,-0.0971 z m 56.00542,-73.6709 -3.78546,-0.97064 -41.54301,-11.45344 -15.43304,-4.65903 0,0.38825 -0.87357,9.60925 -4.07665,11.35638 -6.79442,8.44449 -0.19412,4.27078 3.30014,5.92085 1.65008,7.76505 -2.32952,6.3091 0.38825,6.30911 -1.16475,2.6207 3.97958,8.63862 2.52364,3.30015 -0.19412,9.41512 6.01791,5.72672 3.49427,-5.82378 3.78547,3.00895 1.45594,-1.35888 -5.24141,0.97063 -0.0971,4.95022 1.0677,6.21204 -2.9119,-2.81483 -1.65007,-3.78546 -0.48532,5.2414 1.35889,10.38576 5.43553,6.69735 -3.59133,4.65903 0.58237,5.92085 3.88253,6.01792 6.79442,18.63612 2.13539,1.16475 -0.67945,12.9094 1.0677,1.55301 14.55947,5.24141 4.4649,4.75609 1.55301,3.10602 4.27078,2.42658 4.65903,0.87357 1.94126,5.33847 3.88252,1.8442 5.82379,6.89148 5.43554,9.02687 -0.38826,8.34743 3.00896,3.97958 39.69882,3.88253 0,0 3.49427,-0.19413 1.55301,-4.27077 -3.00896,-2.23246 0.0971,-7.0856 1.74713,-0.38826 3.49427,-8.54155 2.13539,-3.97959 5.43554,-3.20308 -3.00896,-4.07665 -3.39721,-9.12394 0.19413,-2.42657 0,-0.0971 -2.52364,-3.39721 -7.76505,-10.38575 -15.04479,-21.15976 -20.96563,-30.08957 -11.8417,-16.40366 -11.45345,-16.50074 13.20058,-56.00542 0.87357,-3.68839 z"
     style="stroke-width:0.97063118000000004;fill:#3182CE" />
  <path
     inkscape:connector-curvature="0"
     id="NV"
     data-name="Nevada"
     data-id="NV"
     d="m 294.82662,295.8307 10.09457,-62.79983 5.14434,-31.44846 0.58238,-3.10601 -2.81483,-0.48532 -10.96813,-2.03833 -27.46887,-5.43553 -2.71776,-0.58238 -2.71777,-0.58238 -13.6859,-3.00895 -24.55697,-5.82379 -2.71777,-0.67944 -0.87357,3.68839 -13.20058,56.00542 11.45345,16.50074 11.8417,16.40366 20.96563,30.08957 15.04479,21.15976 7.76505,10.38575 2.52364,3.39721 0,-0.29119 1.55301,-3.30014 0.0971,-15.43304 4.27078,-3.59133 3.39721,3.00895 2.23245,0.0971 4.27078,-18.83025 0,-0.19413 0.48531,-3.10602 z"
     style="stroke-width:0.97063118000000004;fill:#3182CE" />
  <path
     inkscape:connector-curvature="0"
     id="OR"
     data-name="Oregon"
     data-id="OR"
     d="m 162.2384,162.75717 15.43304,4.65903 41.54301,11.45344 3.78546,0.97064 2.71777,0.67944 24.55697,5.82379 13.6859,3.00895 2.71777,0.58238 0.38825,-2.03832 9.221,-38.24287 -2.62071,-6.21204 0.29119,-2.42658 10.09457,-13.20059 4.75609,-11.93876 -3.30015,-3.59134 -0.0971,-1.84419 0,-0.0971 -1.8442,-0.38825 -27.27474,-6.21204 -1.45594,0.67944 -5.33848,-0.87357 -10.774,1.16476 -6.60029,-0.87357 -6.98855,-0.0971 -0.58238,-1.74714 -14.75359,-1.35888 -5.24141,-2.81483 -0.67944,-1.8442 0.58238,-7.279734 -3.49428,-3.785461 -0.29118,0.09706 -0.67945,0.485315 -4.85315,-2.523641 -2.9119,0.873568 -1.94126,-0.970631 -2.03832,8.347429 -1.35889,2.329514 -6.01791,14.656531 -1.74714,8.05624 -1.06769,0.0971 -5.62966,13.39471 -3.78546,5.72672 -1.35889,0.97063 -3.49427,6.79442 -0.67944,7.18267 -2.13539,6.40617 1.26182,5.82378 0,0.0971 z m 35.5251,-79.688825 -0.29119,-0.873568 -0.0971,0.679442 0.38825,0.194126 z"
     style="stroke-width:0.97063118000000004;fill:#3182CE" />

</svg>
